<svg width="553" height="463" viewBox="0 0 553 463" fill="none" xmlns="http://www.w3.org/2000/svg">
<path d="M279.949 252.802L276.053 250.322L272.277 252.802L163.814 325.504V462.291H187.419V338.133L276.053 278.649L364.69 338.133V462.291H388.412V325.504L279.949 252.802Z" fill="black"/>
<path d="M446.596 192.022V265.314L276.407 151.186L276.055 150.951L275.817 151.186L105.51 265.314V192.022L276.055 77.7764L285.731 84.2675L446.596 192.022ZM370.825 14.2787L349.582 -2.94622e-06L328.337 14.2787L287.856 41.3068L276.055 49.332L264.251 41.4245L223.77 14.2787L202.642 -2.94622e-06L181.4 14.2787L0 135.844V462.294H23.6026V148.471L202.642 28.5598L254.809 63.4953L81.9077 179.393V462.294H105.51V293.759L276.055 179.393L446.596 293.759V462.294H470.319V179.393L297.297 63.4953L349.582 28.4421L528.504 148.471V462.294H552.109V135.844L370.825 14.2787Z" fill="black"/>
<path d="M276 282V403.923L272.181 406.496L190 462V340.096L276 282Z" fill="black"/>
<path d="M202.6 31.6917L250.114 63.5178L79.2447 178.031V462.263H26.2773V149.873L202.6 31.6917Z" fill="black"/>
<path d="M443.988 193.461V260.312L277.808 148.943L276.076 147.826V80.9378L284.265 86.4093L443.988 193.461Z" fill="black"/>
</svg>
