<svg width="67" height="45" viewBox="0 0 67 45" fill="none" xmlns="http://www.w3.org/2000/svg">
<path fill-rule="evenodd" clip-rule="evenodd" d="M0.79152 0.185601L0.79024 0.1864L0.77968 0.192321L0.76336 0.20128L0.76144 0.20256L0.75776 0.20464L0.7328 0.21936L0.73168 0.22016C0.6096 0.29408 0.49632 0.3864 0.39584 0.49696L0.39424 0.498721C0.3872 0.506401 0.38032 0.51424 0.37344 0.52208L0.37072 0.525279L0.368 0.52848C0.36272 0.5344 0.3576 0.54064 0.35248 0.54672L0.35056 0.54896L0.3472 0.55312L0.34288 0.5584C0.3376 0.5648 0.33264 0.57104 0.32752 0.57744L0.32416 0.5816L0.31888 0.58848L0.31568 0.59264L0.30784 0.60304L0.30192 0.61056L0.29632 0.61824L0.29232 0.62368L0.2864 0.631999L0.28048 0.64L0.27488 0.648L0.26992 0.6552L0.26496 0.6624L0.25968 0.67008L0.25472 0.6776L0.24832 0.68704L0.24416 0.6936L0.23952 0.70064L0.23568 0.70672L0.22768 0.71936L0.22432 0.72512L0.22016 0.73184L0.20144 0.763361L0.19888 0.768L0.18352 0.79552L0.18064 0.800961L0.1784 0.80496L0.16624 0.828L0.1632 0.834401L0.16128 0.83808L0.14992 0.860961L0.1464 0.86848L0.13424 0.894401L0.13024 0.90368C0.0465599 1.092 0 1.30048 0 1.52V42.6352C0 42.9081 0.0719998 43.1645 0.19808 43.3858C0.28048 43.5314 0.3888 43.6658 0.52192 43.7816L0.52528 43.7846L0.5272 43.7862C0.53232 43.7906 0.53744 43.795 0.54272 43.7994L0.548 43.8037L0.55312 43.8082L0.55696 43.8112C0.5632 43.8163 0.5696 43.8214 0.576 43.8266L0.5816 43.831L0.58672 43.835C0.59296 43.8398 0.5992 43.8446 0.60544 43.8493L0.61056 43.8533L0.61664 43.8576C0.62288 43.8624 0.62928 43.867 0.63568 43.8715L0.64016 43.8749L0.64656 43.8793L0.65088 43.8822L0.66592 43.8926L0.67024 43.8957L0.6768 43.9L0.68272 43.904L0.69536 43.9122L0.7008 43.9158L0.7072 43.9198L0.71488 43.9246L0.72592 43.9315C0.95712 44.0734 1.22896 44.1552 1.52 44.1552H64.8598C65.1509 44.1552 65.4227 44.0734 65.6539 43.9315L65.665 43.9246L65.6726 43.9198L65.679 43.9158L65.6845 43.9122L65.6971 43.904L65.703 43.9L65.7096 43.8957L65.7139 43.8926L65.729 43.8822L65.7333 43.8793L65.7397 43.8749L65.7442 43.8715C65.7506 43.867 65.757 43.8624 65.7632 43.8576L65.7693 43.8533L65.7744 43.8493C65.7806 43.8446 65.7869 43.8398 65.7931 43.835L65.7982 43.831L65.8038 43.8266C65.8102 43.8216 65.8166 43.8163 65.8229 43.8112L65.8267 43.8082L65.8318 43.8037L65.8371 43.7994C65.8424 43.795 65.8475 43.7906 65.8526 43.7862L65.8546 43.7846L65.8579 43.7816C65.991 43.6658 66.0992 43.5315 66.1818 43.3858C66.3078 43.1645 66.3798 42.9081 66.3798 42.6352V1.52C66.3798 1.30048 66.3333 1.092 66.2496 0.90368L66.2456 0.894401L66.2346 0.87088L66.2299 0.860961L66.2186 0.83808L66.2171 0.8352L66.2136 0.828L66.2014 0.80496L66.1997 0.80176L66.1963 0.79552L66.1827 0.7712L66.1784 0.763361L66.1597 0.73184L66.1555 0.72512L66.1522 0.71936L66.1441 0.70672L66.1403 0.70064L66.1357 0.6936L66.1315 0.68704L66.1251 0.6776L66.1202 0.67008L66.1149 0.6624L66.1099 0.6552L66.1049 0.648L66.0993 0.64L66.0934 0.631999L66.0875 0.62368L66.0835 0.61824L66.0779 0.61056L66.072 0.60304L66.0642 0.59264L66.061 0.58848L66.0557 0.5816L66.0523 0.57744C66.0474 0.5712 66.0422 0.5648 66.037 0.5584L66.0326 0.55312L66.0293 0.54896L66.0274 0.54672C66.0222 0.54064 66.0171 0.5344 66.0118 0.52848L66.0091 0.525279L66.0064 0.52208C65.9995 0.51424 65.9926 0.506401 65.9856 0.498721L65.984 0.49696C65.8837 0.3864 65.7702 0.29408 65.6482 0.22016L65.6221 0.20464L65.6184 0.20256L65.6165 0.20128L65.6002 0.192321L65.5896 0.1864L65.5883 0.185601C65.3722 0.0672006 65.1238 0 64.8598 0H1.52C1.256 0 1.00768 0.0672006 0.79152 0.185601ZM63.3398 4.76576L41.7462 22.7646C36.7899 26.8958 29.5899 26.8958 24.6336 22.7646L3.04 4.76576V38.4606L17.6144 21.1003C18.1539 20.4578 19.1134 20.3741 19.756 20.9134C20.3984 21.4528 20.4821 22.4125 19.9427 23.0549L4.7808 41.1152H61.599L46.4371 23.0549C45.8978 22.4125 45.9814 21.4528 46.6238 20.9134C47.2664 20.3741 48.2259 20.4578 48.7654 21.1003L63.3398 38.4606V4.76576ZM5.7176 3.04L26.58 20.4296C30.4088 23.621 35.971 23.621 39.7998 20.4296L60.6622 3.04H5.7176Z" fill="#D22B35"/>
</svg>
