<svg width="67" height="40" viewBox="0 0 67 40" fill="none" xmlns="http://www.w3.org/2000/svg">
<path fill-rule="evenodd" clip-rule="evenodd" d="M37.3215 10.7772C36.1307 10.2767 34.8225 10 33.4497 10C27.9269 10 23.4497 14.4772 23.4497 20C23.4497 25.5228 27.9269 30 33.4497 30C38.9725 30 43.4497 25.5228 43.4497 20C43.4497 19.5587 43.4212 19.1238 43.3657 18.6977C44.3699 17.7832 45 16.4652 45 15C45 12.2385 42.7615 10 40 10C39.0147 10 38.0959 10.285 37.3215 10.7772ZM33.4497 26.6667C37.1317 26.6667 40.1164 23.6818 40.1164 20C41.2497 19.9742 42.2899 19.57 43.1162 18.9105C42.2615 19.5923 41.1784 20 40 20C37.2385 20 35 17.7615 35 15C35 14.5022 35.0727 14.0215 35.2082 13.5677C34.648 13.4148 34.0584 13.3333 33.4497 13.3333C29.7679 13.3333 26.783 16.3182 26.783 20C26.783 23.6818 29.7679 26.6667 33.4497 26.6667ZM41.6667 15C41.6667 15.9205 40.9205 16.6667 40 16.6667C39.0795 16.6667 38.3334 15.9205 38.3334 15C38.3334 14.0795 39.0795 13.3333 40 13.3333C40.9205 13.3333 41.6667 14.0795 41.6667 15Z" fill="#D22B35"/>
<path fill-rule="evenodd" clip-rule="evenodd" d="M1.99342 14.7737C7.67327 8.34383 18.4688 0.1545 33.0363 0.00216643C33.1352 0.00066643 33.2342 0 33.3333 0H33.3818H33.4495C48.226 0 59.172 8.28333 64.9055 14.7737C67.5633 17.7825 67.5633 22.2175 64.9055 25.2263C59.172 31.7167 48.226 40 33.4495 40H33.3818H33.3333C33.2342 40 33.1352 39.9993 33.0363 39.9978C18.4688 39.8455 7.67327 31.6562 1.99343 25.2263C-0.664467 22.2175 -0.664483 17.7825 1.99342 14.7737ZM4.49162 16.9805C7.62318 13.4355 12.3758 9.37433 18.4767 6.61017C15.2797 10.1553 13.3333 14.8503 13.3333 20C13.3333 25.1497 15.2797 29.8447 18.4767 33.3898C12.3758 30.6257 7.62318 26.5645 4.49162 23.0195C2.94723 21.2713 2.94723 18.7287 4.49162 16.9805ZM33.3807 3.33333C33.2795 3.33367 33.1785 3.33417 33.0777 3.33533C23.9908 3.47183 16.6667 10.8807 16.6667 20C16.6667 29.1193 23.9908 36.5282 33.0777 36.6647C33.1785 36.6658 33.2795 36.6663 33.3807 36.6667C42.5637 36.6412 50 29.189 50 20C50 10.811 42.5637 3.35883 33.3807 3.33333ZM53.3333 20C53.3333 25.2348 51.3222 29.9998 48.0303 33.5647C54.3197 30.799 59.209 26.64 62.4072 23.0195C63.9517 21.2713 63.9517 18.7287 62.4072 16.9805C59.209 13.36 54.3197 9.201 48.0303 6.43533C51.3222 10.0002 53.3333 14.7652 53.3333 20Z" fill="#D22B35"/>
</svg>
