<svg width="47" height="51" viewBox="0 0 47 51" fill="none" xmlns="http://www.w3.org/2000/svg">
<path d="M44.7096 8.44896L44.8715 8.2725L44.7022 8.10316L37.4223 0.823223L37.349 0.75H37.2455H9.22682H9.12327L9.05005 0.823223L1.77011 8.10316L1.60066 8.27261L1.76279 8.44908L23.0657 31.6357L23.1998 31.7816C22.9197 31.726 22.6335 31.695 22.3443 31.6898L22.3443 31.6897H22.3398H12.333C11.1819 31.6616 10.0399 31.902 8.99785 32.392C7.9917 32.8651 7.10536 33.5583 6.40405 34.4197H0.5H0.25V34.6697V50.1396V50.3896H0.5H20.7291C26.8729 50.3896 33.2203 49.5092 38.0408 47.8069C40.4502 46.956 42.4935 45.8945 43.9387 44.6224C45.386 43.3485 46.249 41.8481 46.2496 40.1315C46.2556 39.6873 46.1715 39.2465 46.0024 38.8356C45.8332 38.4245 45.5824 38.0519 45.2652 37.7404C44.5241 37.0091 43.5094 36.6519 42.6691 36.4759C41.8343 36.3011 41.1396 36.2985 40.982 36.3034L27.1193 36.2407C26.9903 35.0419 26.4647 33.9178 25.6224 33.0488L25.6225 33.0487L25.6162 33.0427C24.9646 32.4158 24.1556 31.9882 23.2839 31.7991L23.434 31.6356L44.7096 8.44896ZM23.9285 34.692C24.3396 35.1214 24.6159 35.6595 24.7267 36.2397H17.7899H17.5399V36.4897V38.3097V38.5597H17.7899L25.915 38.5597L25.9161 38.5597L40.9936 38.6234V38.6235L41.0022 38.6233C41.947 38.5947 42.8761 38.868 43.6547 39.4033C43.7435 39.4943 43.8137 39.602 43.861 39.7202C43.9108 39.8448 43.9342 39.9783 43.9298 40.1123L43.9296 40.1123V40.1206C43.9296 41.1254 43.3233 42.13 42.1457 43.0848C40.9711 44.0371 39.261 44.9112 37.1391 45.6528C32.8977 47.1351 27.064 48.0696 20.7291 48.0696H8.02994V36.1142C8.50879 35.4482 9.1425 34.9082 9.87683 34.541C10.6343 34.1623 11.4747 33.9796 12.321 34.0096L12.321 34.0097H12.3299H22.3341C22.9303 34.0378 23.4965 34.2801 23.9285 34.692ZM23.2498 9.43993H28.918L23.2498 26.4532L17.5816 9.43993H23.2498ZM23.2498 3.4524L27.4435 7.11994H19.0561L23.2498 3.4524ZM26.0692 25.3277L31.3651 9.43993H40.6267L26.0692 25.3277ZM40.473 7.11994H33.3264L36.8997 3.54663L40.473 7.11994ZM26.3403 3.06998H34.1067L30.5168 6.69117L26.3403 3.06998ZM16.0703 6.69128L12.4021 3.06998H20.1687L16.0703 6.69128ZM9.59992 3.54663L13.1732 7.11994H6.02661L9.59992 3.54663ZM5.86402 9.43993H15.1345L20.4307 25.3285L5.86402 9.43993ZM2.56998 48.0696V36.7397H5.62087L5.70802 48.0696H2.56998Z" fill="#D22B35" stroke="#D22B35" stroke-width="0.5"/>
</svg>
