<svg width="52" height="52" viewBox="0 0 52 52" fill="none" xmlns="http://www.w3.org/2000/svg">
<g clip-path="url(#clip0_924_610)">
<path d="M3.25 39C3.52742 38.9973 3.80229 38.9467 4.0625 38.8505V46.8398C3.54013 47.4719 3.253 48.2655 3.25 49.0856V50.375C3.25 50.5905 3.3356 50.7972 3.48798 50.9495C3.64035 51.1019 3.84701 51.1875 4.0625 51.1875H15.4375C15.653 51.1875 15.8597 51.1019 16.012 50.9495C16.1644 50.7972 16.25 50.5905 16.25 50.375V49.0872C16.2472 48.2666 15.9601 47.4724 15.4375 46.8398V26.8125H17.875C18.0905 26.8125 18.2972 26.7269 18.4495 26.5745C18.6019 26.4222 18.6875 26.2155 18.6875 26V25.1875H21.9375V44.6875C21.9375 44.903 22.0231 45.1097 22.1755 45.262C22.3278 45.4144 22.5345 45.5 22.75 45.5H26C26.2155 45.5 26.4222 45.4144 26.5745 45.262C26.7269 45.1097 26.8125 44.903 26.8125 44.6875V25.038C27.2874 24.8725 27.6991 24.5634 27.9904 24.1534C28.2818 23.7434 28.4383 23.2529 28.4383 22.75C28.4383 22.2471 28.2818 21.7566 27.9904 21.3466C27.6991 20.9366 27.2874 20.6275 26.8125 20.462V16.25H34.125V18.6875C34.125 18.903 34.2106 19.1097 34.363 19.262C34.5153 19.4144 34.722 19.5 34.9375 19.5H45.5C45.7155 19.5 45.9222 19.4144 46.0745 19.262C46.2269 19.1097 46.3125 18.903 46.3125 18.6875V6.5C46.3125 6.28451 46.2269 6.07785 46.0745 5.92548C45.9222 5.7731 45.7155 5.6875 45.5 5.6875H37.375V3.25C37.375 3.03451 37.2894 2.82785 37.137 2.67548C36.9847 2.5231 36.778 2.4375 36.5625 2.4375H26.8125V1.625C26.8125 1.40951 26.7269 1.20285 26.5745 1.05048C26.4222 0.898102 26.2155 0.8125 26 0.8125H22.75C22.5345 0.8125 22.3278 0.898102 22.1755 1.05048C22.0231 1.20285 21.9375 1.40951 21.9375 1.625V20.3125H17.9879L13.7052 19.0889C13.973 18.7161 14.1869 18.3075 14.3406 17.875H14.625C15.1179 17.8768 15.5997 17.7285 16.0064 17.45C16.413 17.1714 16.7253 16.7756 16.9016 16.3153C17.078 15.855 17.1101 15.352 16.9937 14.873C16.8773 14.394 16.6179 13.9618 16.25 13.6338V10.5625C16.2493 10.045 16.0842 9.54101 15.7786 9.12336C15.4729 8.70571 15.0425 8.39594 14.5494 8.23875C14.3894 7.51586 13.9876 6.86913 13.4105 6.40531C12.8334 5.94149 12.1154 5.68829 11.375 5.6875H7.3125C6.23545 5.68879 5.20289 6.11722 4.4413 6.8788C3.67972 7.64039 3.25129 8.67295 3.25 9.75V13.6338C2.88208 13.9618 2.62268 14.394 2.50629 14.873C2.38989 15.352 2.42201 15.855 2.59837 16.3153C2.77473 16.7756 3.08698 17.1714 3.49363 17.45C3.90028 17.7285 4.38208 17.8768 4.875 17.875H5.15937C5.31306 18.3075 5.52695 18.7161 5.79475 19.0889L5.30725 19.2278C4.01455 19.6019 2.87789 20.3848 2.06756 21.4593C1.25724 22.5337 0.81689 23.8418 0.8125 25.1875V36.5625C0.8125 37.209 1.06931 37.829 1.52643 38.2861C1.98355 38.7432 2.60353 39 3.25 39ZM3.25 37.375C3.03451 37.375 2.82785 37.2894 2.67548 37.137C2.5231 36.9847 2.4375 36.778 2.4375 36.5625V28.4375H4.0625V36.5625C4.0625 36.778 3.9769 36.9847 3.82452 37.137C3.67215 37.2894 3.46549 37.375 3.25 37.375ZM5.6875 34.9375H13.8125V46.3125H10.5625V37.375H8.9375V46.3125H5.6875V34.9375ZM4.875 49.0864C4.87623 48.673 5.00882 48.2706 5.25362 47.9375H8.9375V49.5625H4.875V49.0864ZM14.625 49.5625H10.5625V47.9375H14.2464C14.4912 48.2706 14.6238 48.673 14.625 49.0864V49.5625ZM23.5625 43.875V25.1875H25.1875V43.875H23.5625ZM26 23.5625H18.6875V21.9375H26C26.2155 21.9375 26.4222 22.0231 26.5745 22.1755C26.7269 22.3278 26.8125 22.5345 26.8125 22.75C26.8125 22.9655 26.7269 23.1722 26.5745 23.3245C26.4222 23.4769 26.2155 23.5625 26 23.5625ZM37.375 15.4375V7.3125H44.6875V17.875H35.75V16.25H36.5625C36.778 16.25 36.9847 16.1644 37.137 16.012C37.2894 15.8597 37.375 15.653 37.375 15.4375ZM35.75 4.0625V14.625H26.8125V4.0625H35.75ZM23.5625 2.4375H25.1875V20.3125H23.5625V2.4375ZM9.75 19.5C8.88805 19.5 8.0614 19.1576 7.4519 18.5481C6.84241 17.9386 6.5 17.112 6.5 16.25V13.8125H7.99338C8.70091 13.8132 9.39804 13.6421 10.0249 13.3139C10.6517 12.9857 11.1894 12.5102 11.5919 11.9283L13 13.3364V16.25C13 17.112 12.6576 17.9386 12.0481 18.5481C11.4386 19.1576 10.612 19.5 9.75 19.5ZM9.75 21.125C10.2654 21.1248 10.7774 21.0425 11.2669 20.8813C11.1525 21.1914 10.9457 21.4591 10.6745 21.6481C10.4033 21.8371 10.0806 21.9385 9.75 21.9385C9.41939 21.9385 9.09672 21.8371 8.82549 21.6481C8.55426 21.4591 8.34749 21.1914 8.23306 20.8813C8.72257 21.0425 9.23462 21.1248 9.75 21.125ZM14.625 16.25V14.625C14.8405 14.625 15.0472 14.7106 15.1995 14.863C15.3519 15.0153 15.4375 15.222 15.4375 15.4375C15.4375 15.653 15.3519 15.8597 15.1995 16.012C15.0472 16.1644 14.8405 16.25 14.625 16.25ZM4.875 9.75C4.875 9.10353 5.13181 8.48355 5.58893 8.02643C6.04605 7.56931 6.66603 7.3125 7.3125 7.3125H11.375C11.806 7.3125 12.2193 7.48371 12.524 7.78845C12.8288 8.0932 13 8.50652 13 8.9375C13 9.15299 13.0856 9.35965 13.238 9.51202C13.3903 9.6644 13.597 9.75 13.8125 9.75C14.028 9.75 14.2347 9.8356 14.387 9.98798C14.5394 10.1403 14.625 10.347 14.625 10.5625V13C14.625 12.7845 14.5393 12.5779 14.3869 12.4256L11.9494 9.98806C11.8515 9.89009 11.7301 9.81879 11.5969 9.78092C11.4636 9.74306 11.3229 9.73989 11.1881 9.77173C11.0533 9.80356 10.9288 9.86933 10.8266 9.9628C10.7244 10.0563 10.6477 10.1743 10.6039 10.3057C10.4217 10.8539 10.0714 11.3308 9.60282 11.6686C9.1342 12.0064 8.57106 12.188 7.99338 12.1875H5.6875C5.47201 12.1875 5.26535 12.2731 5.11298 12.4255C4.9606 12.5778 4.875 12.7845 4.875 13V9.75ZM4.0625 15.4375C4.0625 15.222 4.1481 15.0153 4.30048 14.863C4.45285 14.7106 4.65951 14.625 4.875 14.625V16.25C4.65951 16.25 4.45285 16.1644 4.30048 16.012C4.1481 15.8597 4.0625 15.653 4.0625 15.4375ZM2.4375 25.1875C2.44077 24.1944 2.76581 23.2292 3.36391 22.4364C3.962 21.6436 4.80093 21.066 5.75494 20.7902L6.526 20.5701C6.58662 21.3836 6.9526 22.1442 7.55054 22.6993C8.14848 23.2543 8.93416 23.5628 9.75 23.5628C10.5658 23.5628 11.3515 23.2543 11.9495 22.6993C12.5474 22.1442 12.9134 21.3836 12.974 20.5701L17.0625 21.7376V25.1875H14.625C14.4095 25.1875 14.2028 25.2731 14.0505 25.4255C13.8981 25.5778 13.8125 25.7845 13.8125 26V33.3125H5.6875V27.625C5.6875 27.4095 5.6019 27.2028 5.44952 27.0505C5.29715 26.8981 5.09049 26.8125 4.875 26.8125H2.4375V25.1875Z" fill="#D22B35"/>
<path d="M39.8125 28.4375C37.5627 28.4375 35.3635 29.1046 33.4929 30.3545C31.6223 31.6044 30.1643 33.381 29.3034 35.4595C28.4424 37.538 28.2172 39.8251 28.6561 42.0317C29.095 44.2382 30.1783 46.265 31.7692 47.8558C33.36 49.4467 35.3868 50.53 37.5934 50.9689C39.7999 51.4078 42.087 51.1826 44.1655 50.3216C46.244 49.4607 48.0206 48.0027 49.2705 46.1321C50.5204 44.2615 51.1875 42.0623 51.1875 39.8125C51.1843 36.7967 49.9848 33.9053 47.8523 31.7727C45.7198 29.6402 42.8284 28.4407 39.8125 28.4375ZM39.8125 49.5625C37.8841 49.5625 35.9991 48.9907 34.3957 47.9193C32.7923 46.848 31.5426 45.3252 30.8047 43.5437C30.0667 41.7621 29.8736 39.8017 30.2498 37.9104C30.6261 36.0191 31.5547 34.2818 32.9182 32.9182C34.2818 31.5546 36.0191 30.626 37.9104 30.2498C39.8017 29.8736 41.7621 30.0667 43.5437 30.8047C45.3253 31.5426 46.848 32.7923 47.9193 34.3957C48.9907 35.9991 49.5625 37.8841 49.5625 39.8125C49.5597 42.3975 48.5316 44.8758 46.7037 46.7037C44.8758 48.5316 42.3975 49.5597 39.8125 49.5625Z" fill="#D22B35"/>
<path d="M44.1131 33.5506L37.375 40.2887L35.5119 38.4256C35.3596 38.2733 35.153 38.1877 34.9375 38.1877C34.7221 38.1877 34.5154 38.2733 34.3631 38.4256L31.9256 40.8631C31.7733 41.0155 31.6877 41.2221 31.6877 41.4376C31.6877 41.653 31.7733 41.8596 31.9256 42.012L36.8006 46.887C36.9529 47.0393 37.1596 47.1249 37.375 47.1249C37.5905 47.1249 37.7971 47.0393 37.9494 46.887L47.6994 37.137C47.8518 36.9846 47.9373 36.778 47.9373 36.5626C47.9373 36.3471 47.8518 36.1405 47.6994 35.9881L45.2619 33.5506C45.1096 33.3983 44.903 33.3127 44.6875 33.3127C44.4721 33.3127 44.2654 33.3983 44.1131 33.5506ZM37.375 45.1637L33.6489 41.4376L34.9375 40.1489L36.8006 42.012C36.9529 42.1643 37.1596 42.2499 37.375 42.2499C37.5905 42.2499 37.7971 42.1643 37.9494 42.012L44.6875 35.2739L45.9761 36.5626L37.375 45.1637Z" fill="#D22B35"/>
</g>
<defs>
<clipPath id="clip0_924_610">
<rect width="52" height="52" fill="white"/>
</clipPath>
</defs>
</svg>
