<svg width="207" height="50" viewBox="0 0 207 50" fill="none" xmlns="http://www.w3.org/2000/svg">
<g clip-path="url(#clip0_924_101)">
<path d="M179.33 27.8737L178.957 27.6363L178.596 27.8737L168.212 34.8337V47.9288H170.472V36.0428L178.957 30.3481L187.443 36.0428V47.9288H189.714V34.8337L179.33 27.8737Z" fill="#D12C35"/>
<path d="M195.284 22.0549V29.0714L178.991 18.1455L178.957 18.123L178.934 18.1455L162.63 29.0714V22.0549L178.957 11.1177L179.884 11.7392L195.284 22.0549ZM188.03 5.03889L185.996 3.67194L183.962 5.03889L180.087 7.62638L178.957 8.39466L177.827 7.63765L173.952 5.03889L171.929 3.67194L169.896 5.03889L152.53 16.6768V47.929H154.789V17.8856L171.929 6.40607L176.923 9.75057L160.371 20.8459V47.929H162.63V31.7945L178.957 20.8459L195.284 31.7945V47.929H197.555V20.8459L180.991 9.75057L185.996 6.3948L203.125 17.8856V47.929H205.385V16.6768L188.03 5.03889Z" fill="#D12C35"/>
<path d="M178.96 30.6573V42.2389L178.594 42.4834L170.725 47.7557V36.1759L178.96 30.6573Z" fill="black"/>
<path d="M171.925 6.70589L176.474 9.75272L160.116 20.7155V47.926H155.045V18.0198L171.925 6.70589Z" fill="black"/>
<path d="M195.034 22.1926V28.5926L179.125 17.9308L178.959 17.8239V11.4204L179.743 11.9442L195.034 22.1926Z" fill="black"/>
<mask id="mask0_924_101" style="mask-type:luminance" maskUnits="userSpaceOnUse" x="-5" y="-15" width="218" height="82">
<path d="M-5 -15H213V66.6009H-5V-15Z" fill="white"/>
</mask>
<g mask="url(#mask0_924_101)">
<path d="M32.5371 27.1342C32.2904 27.1342 32.0795 27.0467 31.9049 26.8723C31.73 26.6972 31.6427 26.4865 31.6427 26.2398C31.6427 25.9932 31.73 25.7825 31.9049 25.6074C32.0795 25.4329 32.2904 25.3455 32.5371 25.3455C32.7838 25.3455 32.9944 25.4329 33.1693 25.6074C33.344 25.7825 33.4315 25.9932 33.4315 26.2398C33.4315 26.4865 33.344 26.6972 33.1693 26.8723C32.9944 27.0467 32.7838 27.1342 32.5371 27.1342ZM29.8692 27.1342C29.6226 27.1342 29.4117 27.0467 29.237 26.8723C29.0621 26.6972 28.9749 26.4865 28.9749 26.2398C28.9749 25.9932 29.0621 25.7825 29.237 25.6074C29.4117 25.4329 29.6226 25.3455 29.8692 25.3455C30.1159 25.3455 30.3266 25.4329 30.5015 25.6074C30.6761 25.7825 30.7638 25.9932 30.7638 26.2398C30.7638 26.4865 30.6761 26.6972 30.5015 26.8723C30.3266 27.0467 30.1159 27.1342 29.8692 27.1342Z" fill="black"/>
<path d="M34.218 32.254V30.2957H35.6521V27.6432L37.6107 27.2113V31.8993C37.6107 32.0228 37.559 32.1102 37.4565 32.1615C37.3536 32.2131 37.1995 32.2438 36.9937 32.254H34.218ZM25.2739 32.254L26.4458 30.2957H35.6521V32.254H25.2739Z" fill="black"/>
<path d="M40.3402 30.9124L38.3818 29.941V22.504L40.3402 22.0721V30.9124Z" fill="black"/>
<path d="M41.4659 30.712V22.0721L43.4245 22.5041V29.941L41.4659 30.712ZM40.911 33.5956C41.075 33.5956 41.2089 33.5388 41.3118 33.426C41.4145 33.3127 41.4659 33.1791 41.4659 33.025C41.4659 32.8708 41.4145 32.7372 41.3118 32.6242C41.2089 32.5109 41.075 32.4546 40.911 32.4546C40.7462 32.4546 40.61 32.5109 40.5022 32.6242C40.3942 32.7372 40.3401 32.8708 40.3401 33.025C40.3401 33.1791 40.3942 33.3127 40.5022 33.426C40.61 33.5388 40.7462 33.5956 40.911 33.5956ZM40.911 35.5387C40.4481 35.5387 40.0265 35.4254 39.6463 35.1995C39.2658 34.9731 38.9601 34.6697 38.7287 34.2895C38.4975 33.909 38.3818 33.4876 38.3818 33.025C38.3818 32.5623 38.4975 32.1383 38.7287 31.7527C38.9601 31.3674 39.2684 31.0642 39.654 30.8429C40.0396 30.6219 40.4583 30.5115 40.911 30.5115C41.3734 30.5115 41.7923 30.6245 42.1675 30.8506C42.5427 31.077 42.8435 31.3778 43.0698 31.7527C43.2957 32.1282 43.409 32.5519 43.409 33.025C43.409 33.4876 43.2957 33.909 43.0698 34.2895C42.8435 34.6697 42.5427 34.9731 42.1675 35.1995C41.7923 35.4254 41.3734 35.5387 40.911 35.5387ZM40.911 32.4546C40.4481 32.4546 40.0265 32.3413 39.6463 32.1151C39.2658 31.8892 38.9601 31.5832 38.7287 31.1978C38.4975 30.812 38.3818 30.3933 38.3818 29.941H40.3401C40.3401 30.1053 40.3942 30.2416 40.5022 30.3496C40.61 30.4576 40.7462 30.5115 40.911 30.5115C41.075 30.5115 41.2089 30.4551 41.3118 30.3419C41.4145 30.2288 41.4659 30.0952 41.4659 29.941H43.4245C43.4245 30.4035 43.3088 30.8253 43.0776 31.2055C42.8461 31.5858 42.5427 31.8892 42.1675 32.1151C41.7923 32.3413 41.3734 32.4546 40.911 32.4546Z" fill="black"/>
<path d="M49.2226 29.7403L46.7246 27.2113C46.8579 27.2113 47.043 27.2062 47.2795 27.1961C47.516 27.1859 47.7627 27.1574 48.0197 27.1113C48.2766 27.0649 48.5157 26.9852 48.7368 26.8719C48.9578 26.7591 49.1197 26.6047 49.2226 26.4095V29.7403ZM46.7246 30.2957C46.8889 30.2957 47.0225 30.2416 47.1254 30.1336C47.2281 30.0256 47.2795 29.8947 47.2795 29.7403C47.2795 29.576 47.2281 29.4397 47.1254 29.3315C47.0225 29.2238 46.8889 29.1697 46.7246 29.1697C46.5598 29.1697 46.4238 29.2238 46.3158 29.3315C46.2078 29.4397 46.1539 29.576 46.1539 29.7403C46.1539 29.8947 46.2078 30.0256 46.3158 30.1336C46.4238 30.2416 46.5598 30.2957 46.7246 30.2957ZM44.6271 34.2894C45.2132 34.4438 45.6836 34.4953 46.0382 34.4438C46.3929 34.3921 46.6601 34.2817 46.8401 34.1123C47.0198 33.9427 47.1382 33.7575 47.1949 33.5572C47.251 33.3566 47.2795 33.1892 47.2795 33.0559V30.28L49.2226 29.7403V32.7012C49.2226 33.2873 49.0994 33.7652 48.8527 34.1353C48.6058 34.5054 48.2896 34.7779 47.9043 34.9526C47.5187 35.1273 47.1123 35.2121 46.6859 35.2072C46.2593 35.2017 45.8609 35.1198 45.4908 34.9605C45.1207 34.8009 44.8327 34.5774 44.6271 34.2894ZM46.7246 32.254C46.2619 32.254 45.8401 32.141 45.4599 31.9146C45.0794 31.6887 44.7737 31.3826 44.5423 30.9973C44.3111 30.6117 44.1954 30.1928 44.1954 29.7403C44.1954 29.2677 44.3111 28.8411 44.5423 28.4606C44.7737 28.0803 45.0822 27.7769 45.4676 27.5505C45.8532 27.3246 46.2719 27.2113 46.7246 27.2113C47.1872 27.2113 47.6059 27.3246 47.9813 27.5505C48.3565 27.7769 48.6571 28.0803 48.8834 28.4606C49.1096 28.8411 49.2226 29.2677 49.2226 29.7403C49.2226 30.2029 49.1096 30.6245 48.8834 31.005C48.6571 31.3855 48.3565 31.6887 47.9813 31.9146C47.6059 32.141 47.1872 32.254 46.7246 32.254Z" fill="black"/>
<path d="M50.6106 32.254C50.4047 32.2438 50.2506 32.2131 50.1479 32.1615C50.045 32.1102 49.9938 32.0228 49.9938 31.8993V22.504L51.9521 22.0721V30.2957H53.3862V32.254H50.6106Z" fill="black"/>
<path d="M52.7695 30.2956H58.0128V32.2539H52.7695V30.2956Z" fill="black"/>
<path d="M57.396 30.2956H62.6392V32.2539H57.396V30.2956Z" fill="black"/>
<path d="M62.0222 30.2956H67.2654V32.2539H62.0222V30.2956Z" fill="black"/>
<path d="M71.653 24.3477C71.4064 24.3477 71.1955 24.2603 71.0206 24.0856C70.8459 23.9107 70.7587 23.7 70.7587 23.4534C70.7587 23.2067 70.8459 22.996 71.0206 22.8209C71.1955 22.6464 71.4064 22.559 71.653 22.559C71.8997 22.559 72.1104 22.6464 72.2855 22.8209C72.4599 22.996 72.5474 23.2067 72.5474 23.4534C72.5474 23.7 72.4599 23.9107 72.2855 24.0856C72.1104 24.2603 71.8997 24.3477 71.653 24.3477ZM69.5549 24.3477C69.3082 24.3477 69.0973 24.2603 68.9227 24.0858C68.7478 23.9107 68.6605 23.7 68.6605 23.4534C68.6605 23.2067 68.7478 22.996 68.9227 22.8209C69.0973 22.6464 69.3082 22.559 69.5549 22.559C69.8018 22.559 70.0125 22.6464 70.1871 22.8209C70.3618 22.996 70.4495 23.2067 70.4495 23.4534C70.4495 23.7 70.3618 23.9107 70.1871 24.0858C70.0125 24.2603 69.8018 24.3477 69.5549 24.3477Z" fill="black"/>
<path d="M72.1999 30.2956H74.9756V32.2539H72.1999V30.2956ZM70.6272 27.7819C70.7813 27.7819 70.9125 27.728 71.0203 27.62C71.1282 27.512 71.1826 27.376 71.1826 27.2112C71.1826 27.0571 71.1282 26.9259 71.0203 26.8181C70.9125 26.7099 70.7813 26.6563 70.6272 26.6563C70.4627 26.6563 70.3238 26.7099 70.2107 26.8181C70.0976 26.9259 70.0411 27.0571 70.0411 27.2112C70.0411 27.376 70.0976 27.512 70.2107 27.62C70.3238 27.728 70.4627 27.7819 70.6272 27.7819ZM70.6272 29.7402C70.1645 29.7402 69.7427 29.6276 69.3625 29.4012C68.9822 29.1751 68.6763 28.8692 68.4451 28.4834C68.2137 28.0981 68.098 27.6739 68.098 27.2112C68.098 26.7488 68.2137 26.3272 68.4451 25.9467C68.6763 25.5665 68.9822 25.2633 69.3625 25.0369C69.7427 24.811 70.1645 24.6977 70.6272 24.6977C71.0898 24.6977 71.5087 24.811 71.8842 25.0369C72.2591 25.2633 72.5601 25.5665 72.786 25.9467C73.0122 26.3272 73.1255 26.7488 73.1255 27.2112C73.1255 27.6739 73.0122 28.0981 72.786 28.4834C72.5601 28.8692 72.2591 29.1751 71.8842 29.4012C71.5087 29.6276 71.0898 29.7402 70.6272 29.7402ZM66.6484 32.2539V30.2956H71.1669V28.3216L73.1255 27.2112V31.8995C73.1255 32.0227 73.0738 32.1102 72.9713 32.1614C72.8684 32.2131 72.7143 32.244 72.5082 32.2539H66.6484Z" fill="black"/>
<path d="M78.4457 32.254L79.4481 30.2957H82.5322V32.254H78.4457ZM78.4457 30.2957C78.61 30.2957 78.7436 30.2416 78.8465 30.1336C78.9492 30.0256 79.0006 29.8946 79.0006 29.7403C79.0006 29.576 78.9492 29.4397 78.8465 29.3315C78.7436 29.2237 78.61 29.1696 78.4457 29.1696C78.281 29.1696 78.1449 29.2237 78.0369 29.3315C77.9289 29.4397 77.8751 29.576 77.8751 29.7403C77.8751 29.8946 77.9289 30.0256 78.0369 30.1336C78.1449 30.2416 78.281 30.2957 78.4457 30.2957ZM78.4457 32.254C77.9831 32.254 77.5615 32.1409 77.1812 31.9146C76.8007 31.6887 76.4949 31.3855 76.2634 31.005C76.0322 30.6245 75.9165 30.2029 75.9165 29.7403C75.9165 29.1752 76.0861 28.6688 76.4255 28.2216C76.7647 27.774 77.1964 27.4734 77.7207 27.3193C77.8751 27.2782 78.0087 27.1961 78.122 27.0726C78.2346 26.9492 78.3375 26.7076 78.4302 26.3476C78.5535 26.7177 78.6743 26.9595 78.7926 27.0726C78.9108 27.1859 79.047 27.2731 79.2012 27.3347C79.7049 27.4889 80.1212 27.7872 80.4504 28.2291C80.7792 28.6712 80.944 29.1752 80.944 29.7403C80.944 30.2029 80.8307 30.6245 80.6046 31.005C80.3782 31.3855 80.0774 31.6887 79.7025 31.9146C79.3268 32.1409 78.9081 32.254 78.4457 32.254ZM74.3592 32.254V30.2957H77.4431L78.4457 32.254H74.3592Z" fill="black"/>
<path d="M83.766 30.2956H87.1587V32.2539H83.766V30.2956ZM81.9156 32.2539V30.2956H83.3495V22.5042L85.3081 22.0722V31.8995C85.3081 32.0227 85.2564 32.1102 85.1537 32.1614C85.051 32.2131 84.8967 32.244 84.6913 32.2539H81.9156Z" fill="black"/>
<path d="M86.5419 32.254V30.2957H87.9757V22.504L89.9345 22.0721V31.8993C89.9345 32.0228 89.8828 32.1102 89.7802 32.1615C89.6775 32.2131 89.5231 32.2438 89.3175 32.254H86.5419Z" fill="black"/>
<path d="M95.8713 26.98C95.6246 26.98 95.4137 26.8926 95.2391 26.7179C95.0642 26.543 94.9769 26.3323 94.9769 26.0857C94.9769 25.839 95.0642 25.6283 95.2391 25.4532C95.4137 25.2787 95.6246 25.1913 95.8713 25.1913C96.118 25.1913 96.3286 25.2787 96.5038 25.4532C96.6782 25.6283 96.7657 25.839 96.7657 26.0857C96.7657 26.3323 96.6782 26.543 96.5038 26.7179C96.3286 26.8926 96.118 26.98 95.8713 26.98Z" fill="#D12C35"/>
<path d="M95.7479 35.3999C95.2956 35.3999 94.8818 35.3173 94.5066 35.1532C94.1312 34.9887 93.8099 34.7623 93.5426 34.4748C93.2752 34.1866 93.0698 33.8525 92.9259 33.4722C92.7819 33.0917 92.7103 32.6856 92.7103 32.2541C92.7103 31.8016 92.8051 31.3699 92.9954 30.9587C93.1856 30.5475 93.4294 30.1801 93.7279 29.8561C94.0258 29.5324 94.3343 29.2678 94.653 29.0618C94.6735 29.2574 94.6607 29.4476 94.6146 29.6324C94.5682 29.8177 94.4783 29.9974 94.3447 30.1721C94.4578 30.2236 94.553 30.3163 94.63 30.4497C94.7071 30.5835 94.761 30.7249 94.7919 30.8739C94.8228 31.023 94.8228 31.1539 94.7919 31.267C94.6786 31.1848 94.5682 31.1232 94.4604 31.0822C94.3522 31.0409 94.2418 31.0256 94.1287 31.0358C93.8821 31.0462 93.6789 31.1745 93.5197 31.4211C93.36 31.668 93.2807 31.9456 93.2807 32.2541C93.2807 32.6752 93.368 33.0405 93.5426 33.3488C93.7175 33.6573 93.9591 33.8938 94.2676 34.0583C94.5759 34.2226 94.9306 34.305 95.3316 34.305C95.7223 34.305 96.0692 34.2098 96.3724 34.0197C96.6756 33.8293 96.9123 33.5672 97.0819 33.2333C97.2515 32.8992 97.331 32.5162 97.3209 32.0843C97.3105 31.8376 97.2643 31.5934 97.182 31.3518C97.0998 31.1104 96.9996 30.8843 96.8814 30.6734C96.763 30.4627 96.6526 30.2854 96.5499 30.1414L97.5214 28.2138C97.912 28.6868 98.2616 29.2393 98.5699 29.8713C98.8784 30.5038 99.0325 31.2725 99.0325 32.1768C99.0325 32.8347 98.8808 33.4077 98.5776 33.8964C98.2742 34.3845 97.876 34.7573 97.3825 35.0145C96.8889 35.2713 96.3441 35.3999 95.7479 35.3999Z" fill="#D12C35"/>
<path d="M103.227 31.3596C103.165 31.586 103.009 31.7812 102.757 31.9457C102.505 32.1102 102.212 32.2233 101.878 32.2847C101.544 32.3465 101.22 32.3412 100.907 32.2695C100.593 32.1977 100.331 32.0458 100.12 31.8145C99.9093 31.5831 99.804 31.2514 99.804 30.8199V22.504L101.762 22.0721V30.8199C101.762 31.046 101.819 31.213 101.932 31.321C102.045 31.429 102.184 31.4908 102.348 31.506C102.513 31.5215 102.677 31.5113 102.842 31.4753C103.006 31.4393 103.135 31.4007 103.227 31.3596Z" fill="#D12C35"/>
<path d="M108.64 29.7403L106.142 27.2113C106.275 27.2113 106.46 27.2062 106.697 27.1961C106.933 27.1859 107.18 27.1574 107.437 27.1113C107.694 27.0649 107.933 26.9852 108.154 26.8719C108.375 26.7591 108.537 26.6047 108.64 26.4095V29.7403ZM106.095 32.254L106.666 30.2957H109.704V32.254H106.095ZM106.142 30.2957C106.306 30.2957 106.44 30.2416 106.543 30.1336C106.645 30.0256 106.697 29.8947 106.697 29.7403C106.697 29.576 106.645 29.4397 106.543 29.3315C106.44 29.2238 106.306 29.1697 106.142 29.1697C105.977 29.1697 105.841 29.2238 105.733 29.3315C105.625 29.4397 105.571 29.576 105.571 29.7403C105.571 29.8947 105.625 30.0256 105.733 30.1336C105.841 30.2416 105.977 30.2957 106.142 30.2957ZM104.044 34.2894C104.63 34.4438 105.101 34.4953 105.456 34.4438C105.81 34.3921 106.077 34.2817 106.257 34.1123C106.437 33.9427 106.555 33.7575 106.612 33.5572C106.668 33.3566 106.697 33.1892 106.697 33.0559V30.28L108.64 29.7403V32.7012C108.64 33.2873 108.516 33.7652 108.27 34.1353C108.023 34.5054 107.707 34.7779 107.321 34.9526C106.936 35.1273 106.53 35.2121 106.103 35.2072C105.676 35.2017 105.278 35.1198 104.908 34.9605C104.538 34.8009 104.25 34.5774 104.044 34.2894ZM106.142 32.254C105.679 32.254 105.257 32.141 104.877 31.9146C104.497 31.6887 104.191 31.3826 103.96 30.9973C103.728 30.6117 103.613 30.1928 103.613 29.7403C103.613 29.2677 103.728 28.8411 103.96 28.4606C104.191 28.0803 104.499 27.7769 104.885 27.5505C105.27 27.3246 105.689 27.2113 106.142 27.2113C106.604 27.2113 107.023 27.3246 107.398 27.5505C107.774 27.7769 108.074 28.0803 108.301 28.4606C108.527 28.8411 108.64 29.2677 108.64 29.7403C108.64 30.2029 108.527 30.6245 108.301 31.005C108.074 31.3855 107.774 31.6887 107.398 31.9146C107.023 32.141 106.604 32.254 106.142 32.254Z" fill="#D12C35"/>
<path d="M109.087 30.2956H117.27V32.2539H109.087V30.2956Z" fill="#D12C35"/>
<path d="M113.714 30.2956H121.896V32.2539H113.714V30.2956Z" fill="#D12C35"/>
<path d="M121.28 30.2956H126.523V32.2539H121.28V30.2956Z" fill="#D12C35"/>
<path d="M129.915 35.4614C129.669 35.4614 129.458 35.374 129.283 35.1995C129.108 35.0244 129.021 34.8137 129.021 34.5671C129.021 34.3204 129.108 34.1097 129.283 33.9346C129.458 33.7602 129.669 33.6727 129.915 33.6727C130.162 33.6727 130.373 33.7602 130.548 33.9346C130.722 34.1097 130.81 34.3204 130.81 34.5671C130.81 34.8137 130.722 35.0244 130.548 35.1995C130.373 35.374 130.162 35.4614 129.915 35.4614Z" fill="#D12C35"/>
<path d="M133.453 30.2955L132.527 32.2542H125.906V30.2955H128.42C127.827 29.7122 127.234 29.129 126.64 28.5458C125.553 27.6225 124.129 27.486 123.196 28.1297C122.487 28.6189 122.28 29.4088 122.222 29.6842H120.826C120.934 29.1549 121.225 28.1081 122.097 27.172C122.925 26.2814 124.576 25.1777 126.161 25.62C127.3 25.9378 128.181 26.9925 128.712 27.6274C128.899 27.8517 129.042 28.0483 129.137 28.1852C129.313 28.3992 129.498 28.6039 129.691 28.7987C130.148 29.2631 130.605 29.6266 131.065 29.8935C131.522 30.1632 131.941 30.2955 132.321 30.2955H133.453Z" fill="#D12C35"/>
<path d="M132.527 34.5671C133.021 34.7007 133.429 34.7546 133.753 34.7292C134.077 34.7033 134.326 34.6185 134.501 34.4748C134.676 34.3306 134.797 34.1482 134.864 33.9271C134.93 33.706 134.964 33.4722 134.964 33.2255V27.6433L136.922 27.2114V33.1791C136.922 33.7242 136.807 34.1687 136.575 34.5132C136.344 34.8575 136.043 35.1094 135.673 35.2687C135.303 35.4281 134.915 35.5025 134.509 35.4926C134.103 35.4822 133.722 35.3974 133.368 35.238C133.013 35.0785 132.733 34.855 132.527 34.5671Z" fill="#D12C35"/>
<path d="M137.739 21.1623V20.6535C137.739 20.4582 137.745 20.3015 137.755 20.1831C137.765 20.0652 137.791 19.9287 137.832 19.7743C137.914 19.466 138.053 19.2116 138.248 19.0111C138.444 18.8106 138.742 18.7104 139.143 18.7104C139.287 18.7104 139.459 18.7543 139.66 18.8415C139.86 18.929 140.012 19.0909 140.114 19.3271C140.053 19.2964 139.919 19.2556 139.713 19.2039C139.508 19.1527 139.333 19.1474 139.189 19.1885C139.025 19.2298 138.906 19.3042 138.835 19.4119C138.762 19.5202 138.721 19.6228 138.711 19.7207C138.701 19.8183 138.696 19.8876 138.696 19.9287C138.696 20.1345 138.75 20.2783 138.858 20.3604C138.966 20.443 139.094 20.4916 139.243 20.5068C139.392 20.5223 139.528 20.53 139.652 20.53H140.053L140.068 21.1623H137.739ZM136.614 21.3012L137.077 20.53H140.777L140.315 21.3012H136.614Z" fill="#D12C35"/>
<path d="M139.652 30.9124L137.693 29.941V22.504L139.652 22.0721V30.9124Z" fill="#D12C35"/>
<path d="M140.778 30.712V22.0721L142.736 22.5041V29.941L140.778 30.712ZM140.223 33.5956C140.387 33.5956 140.52 33.5388 140.623 33.426C140.726 33.3127 140.778 33.1791 140.778 33.025C140.778 32.8708 140.726 32.7372 140.623 32.6242C140.52 32.5109 140.387 32.4546 140.223 32.4546C140.058 32.4546 139.922 32.5109 139.814 32.6242C139.706 32.7372 139.652 32.8708 139.652 33.025C139.652 33.1791 139.706 33.3127 139.814 33.426C139.922 33.5388 140.058 33.5956 140.223 33.5956ZM140.223 35.5387C139.76 35.5387 139.338 35.4254 138.958 35.1995C138.578 34.9731 138.271 34.6697 138.04 34.2895C137.809 33.909 137.693 33.4876 137.693 33.025C137.693 32.5623 137.809 32.1383 138.04 31.7527C138.271 31.3674 138.58 31.0642 138.965 30.8429C139.351 30.6219 139.77 30.5115 140.223 30.5115C140.685 30.5115 141.104 30.6245 141.479 30.8506C141.855 31.077 142.155 31.3778 142.381 31.7527C142.607 32.1282 142.721 32.5519 142.721 33.025C142.721 33.4876 142.607 33.909 142.381 34.2895C142.155 34.6697 141.855 34.9731 141.479 35.1995C141.104 35.4254 140.685 35.5387 140.223 35.5387ZM140.223 32.4546C139.76 32.4546 139.338 32.3413 138.958 32.1151C138.578 31.8892 138.271 31.5832 138.04 31.1978C137.809 30.812 137.693 30.3933 137.693 29.941H139.652C139.652 30.1053 139.706 30.2416 139.814 30.3496C139.922 30.4576 140.058 30.5115 140.223 30.5115C140.387 30.5115 140.52 30.4551 140.623 30.3419C140.726 30.2288 140.778 30.0952 140.778 29.941H142.736C142.736 30.4035 142.62 30.8253 142.389 31.2055C142.158 31.5858 141.855 31.8892 141.479 32.1151C141.104 32.3413 140.685 32.4546 140.223 32.4546Z" fill="#D12C35"/>
<path d="M146.931 31.3596C146.869 31.586 146.712 31.7812 146.46 31.9457C146.208 32.1102 145.915 32.2233 145.581 32.2847C145.247 32.3465 144.923 32.3412 144.61 32.2695C144.296 32.1977 144.034 32.0458 143.823 31.8145C143.612 31.5831 143.507 31.2514 143.507 30.8199V22.504L145.466 22.0721V30.8199C145.466 31.046 145.522 31.213 145.635 31.321C145.748 31.429 145.887 31.4908 146.051 31.506C146.216 31.5215 146.38 31.5113 146.545 31.4753C146.709 31.4393 146.838 31.4007 146.931 31.3596Z" fill="#D12C35"/>
<path d="M4.99061 31.122C5.08998 31.122 5.17456 31.0874 5.24412 31.0178C5.31368 30.9482 5.34858 30.8639 5.34858 30.7643C5.34858 30.6583 5.31368 30.5704 5.24412 30.5011C5.17456 30.4315 5.08998 30.3966 4.99061 30.3966C4.88461 30.3966 4.79517 30.4315 4.7223 30.5011C4.6492 30.5704 4.61298 30.6583 4.61298 30.7643C4.61298 30.8639 4.6492 30.9482 4.7223 31.0178C4.79517 31.0874 4.88461 31.122 4.99061 31.122ZM4.99061 32.3845C4.69248 32.3845 4.42064 32.3117 4.17573 32.1657C3.93039 32.0202 3.73319 31.8227 3.58412 31.5743C3.43506 31.3259 3.36064 31.056 3.36064 30.7643C3.36064 30.4662 3.42667 30.2027 3.55939 29.9741C3.69189 29.7454 3.86745 29.5583 4.08608 29.4123C4.3047 29.2668 4.53348 29.1805 4.77198 29.154C4.80511 29.0347 4.86297 28.9239 4.946 28.821C5.02859 28.7185 5.09329 28.6405 5.13967 28.5873C5.64979 28.8989 6.02101 29.2286 6.2531 29.5764C6.48476 29.9242 6.60092 30.3204 6.60092 30.7643C6.60092 31.0624 6.52782 31.3343 6.38229 31.5794C6.23632 31.8245 6.04265 32.0202 5.80084 32.1657C5.55881 32.3117 5.28873 32.3845 4.99061 32.3845ZM2.61511 34.1834C2.62836 34.1834 2.67474 34.1702 2.75424 34.1439C2.83374 34.1172 2.91986 34.069 3.01261 33.9995C3.10558 33.9299 3.18663 33.8339 3.25619 33.7115C3.32575 33.5887 3.36064 33.4346 3.36064 33.2491V30.7543L4.62292 31.4701V33.2491C4.62292 33.5209 4.54651 33.7477 4.39436 33.9299C4.24176 34.1121 4.05295 34.2446 3.8277 34.3276C3.60245 34.4102 3.37875 34.44 3.15681 34.4171C2.93488 34.3939 2.75424 34.3162 2.61511 34.1834Z" fill="black"/>
<path d="M7.25678 31.2464C7.39591 31.1172 7.54828 31.0525 7.71413 31.0525C7.86628 31.0525 8.01225 31.1172 8.15137 31.2464C8.2905 31.3756 8.36006 31.533 8.36006 31.7185C8.36006 31.9239 8.2905 32.0862 8.15137 32.2057C8.01225 32.3247 7.86628 32.3845 7.71413 32.3845C7.54828 32.3845 7.39591 32.3247 7.25678 32.2057C7.11766 32.0862 7.0481 31.9272 7.0481 31.7284C7.0481 31.5363 7.11766 31.3756 7.25678 31.2464Z" fill="black"/>
<path d="M10.4276 31.122C10.527 31.122 10.6116 31.0874 10.6811 31.0178C10.7507 30.9482 10.7856 30.8639 10.7856 30.7643C10.7856 30.6583 10.7507 30.5704 10.6811 30.5011C10.6116 30.4315 10.527 30.3966 10.4276 30.3966C10.3216 30.3966 10.2322 30.4315 10.1593 30.5011C10.0862 30.5704 10.05 30.6583 10.05 30.7643C10.05 30.8639 10.0862 30.9482 10.1593 31.0178C10.2322 31.0874 10.3216 31.122 10.4276 31.122ZM10.4276 32.3845C10.1295 32.3845 9.85765 32.3117 9.61275 32.1657C9.3674 32.0202 9.1702 31.8227 9.02114 31.5743C8.87207 31.3259 8.79765 31.056 8.79765 30.7643C8.79765 30.4662 8.86368 30.2027 8.9964 29.9741C9.1289 29.7454 9.30446 29.5583 9.52309 29.4123C9.74171 29.2668 9.9705 29.1805 10.209 29.154C10.2421 29.0347 10.3 28.9239 10.383 28.821C10.4656 28.7185 10.5303 28.6405 10.5767 28.5873C11.0868 28.8989 11.458 29.2286 11.6899 29.5764C11.9218 29.9242 12.0379 30.3204 12.0379 30.7643C12.0379 31.0624 11.9648 31.3343 11.8193 31.5794C11.6733 31.8245 11.4797 32.0202 11.2379 32.1657C10.9958 32.3117 10.7257 32.3845 10.4276 32.3845ZM8.05212 34.1834C8.06537 34.1834 8.11175 34.1702 8.19125 34.1439C8.27075 34.1172 8.35687 34.069 8.44962 33.9995C8.54259 33.9299 8.62364 33.8339 8.6932 33.7115C8.76276 33.5887 8.79765 33.4346 8.79765 33.2491V30.7543L10.0599 31.4701V33.2491C10.0599 33.5209 9.98352 33.7477 9.83137 33.9299C9.67878 34.1121 9.48996 34.2446 9.26471 34.3276C9.03947 34.4102 8.81576 34.44 8.59383 34.4171C8.37189 34.3939 8.19125 34.3162 8.05212 34.1834Z" fill="black"/>
<path d="M12.6938 31.2464C12.8331 31.1172 12.9853 31.0525 13.1511 31.0525C13.3033 31.0525 13.4493 31.1172 13.5884 31.2464C13.7275 31.3756 13.7971 31.533 13.7971 31.7185C13.7971 31.9239 13.7275 32.0862 13.5884 32.2057C13.4493 32.3247 13.3033 32.3845 13.1511 32.3845C12.9853 32.3845 12.8331 32.3247 12.6938 32.2057C12.5547 32.0862 12.4851 31.9272 12.4851 31.7284C12.4851 31.5363 12.5547 31.3756 12.6938 31.2464Z" fill="black"/>
<path d="M18.5779 27.991C18.4189 27.991 18.2831 27.9347 18.1705 27.8221C18.0576 27.7092 18.0015 27.5736 18.0015 27.4146C18.0015 27.2554 18.0576 27.1198 18.1705 27.007C18.2831 26.8946 18.4189 26.838 18.5779 26.838C18.7369 26.838 18.8727 26.8946 18.9856 27.007C19.098 27.1198 19.1545 27.2554 19.1545 27.4146C19.1545 27.5736 19.098 27.7092 18.9856 27.8221C18.8727 27.9347 18.7369 27.991 18.5779 27.991Z" fill="black"/>
<path d="M14.2344 32.3844L14.9898 31.1219H21.1226C21.129 30.9101 21.0744 30.7361 20.9585 30.6003C20.8426 30.4645 20.599 30.3967 20.228 30.3967H15.3277L16.7987 27.9415L16.8981 28.0108L16.3813 29.1342H20.228C20.6917 29.1342 21.0645 29.2005 21.3461 29.333C21.6278 29.4655 21.8432 29.641 21.9922 29.8596C22.1413 30.0785 22.2422 30.3205 22.2954 30.5853C22.3484 30.8503 22.3765 31.1188 22.3798 31.3905C22.3831 31.6623 22.3849 31.9174 22.3849 32.1559C22.3849 32.2354 22.3517 32.2917 22.2855 32.3248C22.219 32.3581 22.1196 32.3778 21.9874 32.3844H14.2344Z" fill="black"/>
<path d="M4.40265 43.003H6.33913L6.71985 43.9217H4.07162L4.40265 43.003ZM2.61523 45.2208L5.32971 38.9147H5.38756L8.10181 45.2208H6.84395L5.03158 40.6198L5.81775 40.0898L3.69091 45.2208H2.61523Z" fill="#D12C35"/>
<path d="M9.05353 39.1632H10.1376V44.1699H13.0506V45.2208H9.05353V39.1632Z" fill="#D12C35"/>
<path d="M16.0585 43.003H17.9949L18.3756 43.9217H15.7274L16.0585 43.003ZM14.2708 45.2208L16.9855 38.9147H17.0434L19.7576 45.2208H18.4998L16.6874 40.6198L17.4735 40.0898L15.3467 45.2208H14.2708Z" fill="#D12C35"/>
<path d="M23.7383 42.8292L25.2609 45.2208H23.9949L22.4391 42.8539L23.7383 42.8292ZM22.6542 42.159C22.919 42.159 23.1246 42.1053 23.2708 41.9975C23.417 41.8898 23.519 41.7617 23.5769 41.6126C23.6349 41.4638 23.6639 41.3258 23.6639 41.199C23.6639 41.1162 23.6513 41.0197 23.6265 40.9093C23.6018 40.7991 23.5548 40.69 23.4859 40.5824C23.417 40.4749 23.3163 40.3868 23.1838 40.3177C23.0515 40.2488 22.8804 40.2141 22.6708 40.2141H21.7934V42.159H22.6542ZM22.4804 39.1632C22.9603 39.1632 23.3728 39.2431 23.7175 39.4032C24.0622 39.5631 24.327 39.7921 24.5121 40.0898C24.6969 40.3879 24.7892 40.7437 24.7892 41.1575C24.7892 41.4004 24.7521 41.6431 24.6775 41.8858C24.6031 42.1285 24.4843 42.3493 24.3217 42.5479C24.159 42.7464 23.941 42.9065 23.6681 43.0279C23.3949 43.1492 23.0597 43.2099 22.6624 43.2099H21.7934V45.2208H20.7094V39.1632H22.4804Z" fill="#D12C35"/>
<path d="M27.9422 43.9961C27.9422 44.5091 27.8402 44.949 27.6361 45.316C27.4319 45.6828 27.1505 45.9642 26.7919 46.1603C26.4333 46.3557 26.0194 46.4624 25.5506 46.4787V45.4196C25.9313 45.3973 26.2416 45.276 26.4816 45.0554C26.7215 44.8346 26.8416 44.4731 26.8416 43.9714V39.1632H27.9422V43.9961Z" fill="#D12C35"/>
<path d="M30.309 42.2003C30.309 42.5757 30.3973 42.9175 30.574 43.2265C30.7505 43.5356 30.989 43.781 31.2897 43.9629C31.5903 44.1451 31.9282 44.2361 32.3034 44.2361C32.6675 44.2361 32.9972 44.1451 33.2925 43.9629C33.5875 43.781 33.8207 43.5356 33.9918 43.2265C34.1625 42.9175 34.2482 42.5757 34.2482 42.2003C34.2482 41.8142 34.1599 41.4664 33.9834 41.1575C33.8068 40.8488 33.5709 40.603 33.2759 40.421C32.9806 40.2388 32.6483 40.1478 32.2786 40.1478C31.9034 40.1478 31.5682 40.2388 31.2732 40.421C30.9779 40.603 30.7436 40.8488 30.5698 41.1575C30.396 41.4664 30.309 41.8142 30.309 42.2003ZM29.1837 42.1919C29.1837 41.7782 29.2623 41.3838 29.4195 41.0084C29.5767 40.6335 29.7973 40.3024 30.0816 40.0156C30.3655 39.7287 30.6939 39.5039 31.0663 39.3411C31.4388 39.1784 31.8372 39.0971 32.2621 39.0971C32.6869 39.0971 33.0869 39.1784 33.4621 39.3411C33.8373 39.5039 34.1683 39.7287 34.4551 40.0156C34.742 40.3024 34.9668 40.6335 35.1296 41.0084C35.2923 41.3838 35.3738 41.7809 35.3738 42.2003C35.3738 42.6254 35.2923 43.0235 35.1296 43.3961C34.9668 43.7686 34.742 44.097 34.4551 44.3808C34.1683 44.6652 33.8373 44.8871 33.4621 45.047C33.0869 45.2073 32.6869 45.2871 32.2621 45.2871C31.8427 45.2871 31.4454 45.2073 31.0704 45.047C30.695 44.8871 30.3655 44.6665 30.0816 44.3852C29.7973 44.1036 29.5767 43.7768 29.4195 43.4045C29.2623 43.0319 29.1837 42.628 29.1837 42.1919Z" fill="#D12C35"/>
<path d="M38.6177 39.1961H39.6936L41.266 43.1271L41.0672 43.094L42.3003 39.1961H43.4672L41.1169 45.4856L38.6177 39.1961ZM35.6056 39.1961H36.8798L38.2702 43.2265L38.0964 43.1521L39.2467 40.2636L39.7433 41.7536L38.0385 45.5022L35.6056 39.1961Z" fill="#D12C35"/>
<path d="M44.8823 43.003H46.8188L47.1995 43.9217H44.5513L44.8823 43.003ZM43.0949 45.2208L45.8094 38.9147H45.8672L48.5815 45.2208H47.3236L45.5113 40.6198L46.2974 40.0898L44.1706 45.2208H43.0949Z" fill="#D12C35"/>
<path d="M54.9042 45.4525L50.2864 41.1326L50.6092 41.2982L50.634 45.2208H49.5333V38.9397H49.5746L54.1099 43.243L53.8698 43.1521L53.8449 39.1632H54.9373V45.4525H54.9042Z" fill="#D12C35"/>
<path d="M62.1536 44.7325C62.0763 44.7877 61.9495 44.8608 61.7729 44.952C61.5962 45.043 61.3824 45.123 61.1316 45.1919C60.8805 45.2608 60.6031 45.2926 60.2997 45.287C59.8251 45.276 59.4005 45.1905 59.0255 45.0304C58.6501 44.8705 58.3314 44.6499 58.0695 44.3684C57.8074 44.087 57.6073 43.7642 57.4695 43.4C57.3315 43.0359 57.2628 42.6499 57.2628 42.2415C57.2628 41.7782 57.333 41.3549 57.4737 40.9713C57.6144 40.5879 57.8171 40.2569 58.0819 39.9784C58.3469 39.6998 58.6598 39.4831 59.0213 39.3285C59.3826 39.1742 59.7838 39.0971 60.2253 39.0971C60.617 39.0971 60.9673 39.1492 61.2762 39.2541C61.5854 39.359 61.8391 39.4747 62.0377 39.6017L61.6075 40.6279C61.4639 40.5232 61.2762 40.4168 61.0446 40.3092C60.8129 40.2017 60.5508 40.1478 60.2584 40.1478C59.9274 40.1478 59.6198 40.2377 59.3358 40.4168C59.0513 40.5961 58.8239 40.839 58.653 41.1451C58.482 41.4514 58.3963 41.7977 58.3963 42.1837C58.3963 42.5865 58.475 42.9425 58.6322 43.2514C58.7894 43.5603 59.0129 43.8015 59.3026 43.9753C59.5924 44.1491 59.9329 44.2361 60.3247 44.2361C60.6446 44.2361 60.9205 44.1851 61.1523 44.0831C61.3838 43.9808 61.566 43.8719 61.6985 43.7562L62.1536 44.7325Z" fill="black"/>
<path d="M64.1479 42.2003C64.1479 42.5757 64.2363 42.9175 64.4129 43.2265C64.5894 43.5356 64.8279 43.781 65.1287 43.9629C65.4292 44.1451 65.7671 44.2361 66.1423 44.2361C66.5064 44.2361 66.8361 44.1451 67.1314 43.9629C67.4264 43.781 67.6596 43.5356 67.8305 43.2265C68.0015 42.9175 68.0869 42.5757 68.0869 42.2003C68.0869 41.8142 67.9986 41.4664 67.8224 41.1575C67.6457 40.8488 67.4099 40.603 67.1148 40.421C66.8196 40.2388 66.4872 40.1478 66.1175 40.1478C65.7424 40.1478 65.4071 40.2388 65.1121 40.421C64.8168 40.603 64.5825 40.8488 64.4087 41.1575C64.235 41.4664 64.1479 41.8142 64.1479 42.2003ZM63.0226 42.1919C63.0226 41.7782 63.1012 41.3838 63.2584 41.0084C63.4157 40.6335 63.6363 40.3024 63.9205 40.0156C64.2045 39.7287 64.5329 39.5039 64.9052 39.3411C65.2777 39.1784 65.6761 39.0971 66.101 39.0971C66.5259 39.0971 66.9258 39.1784 67.301 39.3411C67.6762 39.5039 68.0072 39.7287 68.2943 40.0156C68.5809 40.3024 68.8057 40.6335 68.9687 41.0084C69.131 41.3838 69.2127 41.7809 69.2127 42.2003C69.2127 42.6254 69.131 43.0235 68.9687 43.3961C68.8057 43.7686 68.5809 44.097 68.2943 44.3808C68.0072 44.6652 67.6762 44.8871 67.301 45.047C66.9258 45.2073 66.5259 45.2871 66.101 45.2871C65.6816 45.2871 65.2843 45.2073 64.9094 45.047C64.534 44.8871 64.2045 44.6665 63.9205 44.3852C63.6363 44.1036 63.4157 43.7768 63.2584 43.4045C63.1012 43.0319 63.0226 42.628 63.0226 42.1919Z" fill="black"/>
<path d="M75.8248 45.4525L71.207 41.1326L71.5298 41.2982L71.5545 45.2208H70.4539V38.9397H70.4954L75.0304 43.243L74.7904 43.1521L74.7654 39.1632H75.8579V45.4525H75.8248Z" fill="black"/>
<path d="M80.6825 40.5204C80.4617 40.3992 80.23 40.2982 79.9873 40.2183C79.7447 40.1384 79.5157 40.0982 79.3003 40.0982C79.0245 40.0982 78.8066 40.1562 78.6467 40.272C78.4866 40.3879 78.4066 40.5562 78.4066 40.7768C78.4066 40.9314 78.4647 41.0678 78.5804 41.1866C78.6964 41.3052 78.8465 41.4086 79.0316 41.4967C79.2164 41.585 79.4081 41.6681 79.6066 41.7451C79.8493 41.8335 80.0825 41.9452 80.306 42.0804C80.5295 42.2155 80.7141 42.3988 80.8605 42.6305C81.0065 42.8623 81.0796 43.1713 81.0796 43.5575C81.0796 43.8664 80.9996 44.152 80.8395 44.4139C80.6797 44.6762 80.4467 44.8869 80.1404 45.047C79.8341 45.2071 79.4631 45.2871 79.0274 45.2871C78.6632 45.2871 78.3033 45.2319 77.9475 45.1214C77.5915 45.0112 77.2674 44.8511 76.975 44.6416L77.4548 43.7892C77.6591 43.9435 77.8978 44.072 78.1708 44.1741C78.444 44.2763 78.6964 44.3271 78.928 44.3271C79.0824 44.3271 79.2383 44.3022 79.3957 44.2525C79.5528 44.203 79.6839 44.1228 79.7888 44.0126C79.8933 43.9022 79.9458 43.7507 79.9458 43.5575C79.9458 43.414 79.9017 43.2872 79.8136 43.1768C79.7252 43.0666 79.608 42.9672 79.4618 42.8789C79.3156 42.7908 79.157 42.7161 78.9859 42.6554C78.7984 42.5836 78.6054 42.5024 78.4066 42.4114C78.2081 42.3204 78.0233 42.2087 77.8523 42.0762C77.6812 41.9439 77.5432 41.7796 77.4385 41.5837C77.3336 41.3878 77.2813 41.1465 77.2813 40.8596C77.2813 40.5175 77.3583 40.2212 77.5129 39.9701C77.6675 39.719 77.8855 39.5189 78.1668 39.3699C78.4479 39.221 78.7734 39.1411 79.1433 39.13C79.6011 39.13 79.9816 39.1837 80.2853 39.2915C80.5887 39.399 80.859 39.5302 81.0964 39.6843L80.6825 40.5204Z" fill="black"/>
<path d="M81.8744 39.1632H85.9377V40.2141H84.4232V45.2208H83.331V40.2141H81.8744V39.1632Z" fill="black"/>
<path d="M90.1663 42.8292L91.6889 45.2208H90.4227L88.8671 42.8539L90.1663 42.8292ZM89.0822 42.159C89.347 42.159 89.5524 42.1053 89.6988 41.9975C89.845 41.8898 89.947 41.7617 90.0048 41.6126C90.0629 41.4638 90.0918 41.3258 90.0918 41.199C90.0918 41.1162 90.0793 41.0197 90.0545 40.9093C90.0298 40.7991 89.983 40.69 89.9139 40.5824C89.845 40.4749 89.744 40.3868 89.6118 40.3177C89.4793 40.2488 89.3083 40.2141 89.0988 40.2141H88.2216V42.159H89.0822ZM88.9084 39.1632C89.3883 39.1632 89.8008 39.2431 90.1455 39.4032C90.4902 39.5631 90.755 39.7921 90.9398 40.0898C91.1247 40.3879 91.2172 40.7437 91.2172 41.1575C91.2172 41.4004 91.1801 41.6431 91.1057 41.8858C91.031 42.1285 90.9125 42.3493 90.7497 42.5479C90.587 42.7464 90.369 42.9065 90.0958 43.0279C89.8229 43.1492 89.4876 43.2099 89.0906 43.2099H88.2216V45.2208H87.1373V39.1632H88.9084Z" fill="black"/>
<path d="M93.7333 43.003C93.7333 43.2181 93.7925 43.4197 93.9113 43.6072C94.0299 43.7949 94.1885 43.9451 94.3872 44.0582C94.5857 44.1712 94.8035 44.2278 95.0409 44.2278C95.2944 44.2278 95.5221 44.1712 95.7237 44.0582C95.9249 43.9451 96.0836 43.7949 96.1996 43.6072C96.3153 43.4197 96.3734 43.2181 96.3734 43.003V39.1632H97.4491V43.0277C97.4491 43.4747 97.3415 43.8678 97.1264 44.207C96.9111 44.5462 96.6214 44.8112 96.2572 45.0015C95.8933 45.1919 95.4876 45.2869 95.0409 45.2869C94.5939 45.2869 94.1898 45.1919 93.8285 45.0015C93.467 44.8112 93.1788 44.5462 92.9637 44.207C92.7486 43.8678 92.6409 43.4747 92.6409 43.0277V39.1632H93.7333V43.003Z" fill="black"/>
<path d="M103.474 44.7325C103.396 44.7877 103.269 44.8608 103.093 44.952C102.916 45.043 102.703 45.123 102.452 45.1919C102.201 45.2608 101.923 45.2926 101.62 45.287C101.145 45.276 100.721 45.1905 100.345 45.0304C99.97 44.8705 99.6516 44.6499 99.3897 44.3684C99.1276 44.087 98.9275 43.7642 98.7895 43.4C98.6514 43.0359 98.5828 42.6499 98.5828 42.2415C98.5828 41.7782 98.653 41.3549 98.7939 40.9713C98.9345 40.5879 99.1373 40.2569 99.4021 39.9784C99.6668 39.6998 99.98 39.4831 100.341 39.3285C100.703 39.1742 101.104 39.0971 101.545 39.0971C101.937 39.0971 102.287 39.1492 102.596 39.2541C102.905 39.359 103.159 39.4747 103.358 39.6017L102.927 40.6279C102.784 40.5232 102.596 40.4168 102.365 40.3092C102.133 40.2017 101.871 40.1478 101.579 40.1478C101.248 40.1478 100.94 40.2377 100.656 40.4168C100.372 40.5961 100.144 40.839 99.9729 41.1451C99.802 41.4514 99.7165 41.7977 99.7165 42.1837C99.7165 42.5865 99.7951 42.9425 99.9524 43.2514C100.11 43.5603 100.333 43.8015 100.623 43.9753C100.912 44.1491 101.253 44.2361 101.645 44.2361C101.965 44.2361 102.24 44.1851 102.472 44.0831C102.704 43.9808 102.886 43.8719 103.018 43.7562L103.474 44.7325Z" fill="black"/>
<path d="M104.293 39.1632H108.356V40.2141H106.842V45.2208H105.75V40.2141H104.293V39.1632Z" fill="black"/>
<path d="M109.556 39.1631H110.64V45.2208H109.556V39.1631Z" fill="black"/>
<path d="M113.015 42.2003C113.015 42.5757 113.103 42.9175 113.28 43.2265C113.456 43.5356 113.695 43.781 113.996 43.9629C114.296 44.1451 114.634 44.2361 115.01 44.2361C115.374 44.2361 115.703 44.1451 115.999 43.9629C116.294 43.781 116.527 43.5356 116.698 43.2265C116.869 42.9175 116.954 42.5757 116.954 42.2003C116.954 41.8142 116.866 41.4664 116.69 41.1575C116.513 40.8488 116.277 40.603 115.982 40.421C115.687 40.2388 115.354 40.1478 114.985 40.1478C114.61 40.1478 114.275 40.2388 113.979 40.421C113.684 40.603 113.45 40.8488 113.276 41.1575C113.102 41.4664 113.015 41.8142 113.015 42.2003ZM111.89 42.1919C111.89 41.7782 111.968 41.3838 112.126 41.0084C112.283 40.6335 112.503 40.3024 112.787 40.0156C113.072 39.7287 113.4 39.5039 113.772 39.3411C114.145 39.1784 114.543 39.0971 114.968 39.0971C115.393 39.0971 115.793 39.1784 116.168 39.3411C116.543 39.5039 116.874 39.7287 117.161 40.0156C117.448 40.3024 117.673 40.6335 117.836 41.0084C117.998 41.3838 118.08 41.7809 118.08 42.2003C118.08 42.6254 117.998 43.0235 117.836 43.3961C117.673 43.7686 117.448 44.097 117.161 44.3808C116.874 44.6652 116.543 44.8871 116.168 45.047C115.793 45.2073 115.393 45.2871 114.968 45.2871C114.549 45.2871 114.152 45.2073 113.777 45.047C113.401 44.8871 113.072 44.6665 112.787 44.3852C112.503 44.1036 112.283 43.7768 112.126 43.4045C111.968 43.0319 111.89 42.628 111.89 42.1919Z" fill="black"/>
<path d="M124.692 45.4525L120.074 41.1326L120.397 41.2982L120.422 45.2208H119.321V38.9397H119.363L123.898 43.243L123.658 43.1521L123.633 39.1632H124.725V45.4525H124.692Z" fill="black"/>
<path d="M130.356 44.6795C130.31 44.7117 130.236 44.7543 130.133 44.8075C130.03 44.8612 129.905 44.9076 129.758 44.948C129.611 44.9884 129.449 45.007 129.272 45.0039C128.995 44.9972 128.746 44.9471 128.527 44.8537C128.308 44.7601 128.121 44.6311 127.968 44.4668C127.815 44.3023 127.698 44.1137 127.618 43.9006C127.537 43.6877 127.497 43.4622 127.497 43.2235C127.497 42.9523 127.538 42.705 127.62 42.4809C127.702 42.2565 127.821 42.0628 127.976 41.9003C128.13 41.7373 128.313 41.611 128.525 41.5205C128.736 41.4301 128.971 41.3849 129.228 41.3849C129.458 41.3849 129.662 41.4156 129.843 41.4772C130.024 41.5383 130.172 41.6061 130.288 41.6801L130.036 42.2801C129.952 42.2189 129.843 42.1565 129.707 42.094C129.572 42.031 129.419 41.9994 129.248 41.9994C129.054 41.9994 128.875 42.0518 128.709 42.1565C128.542 42.2613 128.409 42.4031 128.309 42.5822C128.209 42.7613 128.16 42.9638 128.16 43.1893C128.16 43.4251 128.205 43.6329 128.297 43.8136C128.389 43.9944 128.52 44.1353 128.689 44.2367C128.858 44.3383 129.058 44.3893 129.286 44.3893C129.474 44.3893 129.635 44.3595 129.77 44.2996C129.906 44.24 130.012 44.1766 130.09 44.1088L130.356 44.6795Z" fill="black"/>
<path d="M131.247 43.729C131.247 43.8823 131.283 44.0223 131.356 44.1486C131.428 44.2754 131.526 44.3756 131.649 44.4505C131.772 44.5249 131.91 44.562 132.063 44.562C132.212 44.562 132.347 44.5249 132.468 44.4505C132.589 44.3756 132.684 44.2754 132.754 44.1486C132.824 44.0223 132.859 43.8823 132.859 43.729C132.859 43.5709 132.823 43.4287 132.751 43.3024C132.678 43.1761 132.582 43.0754 132.461 43.0009C132.34 42.9265 132.204 42.889 132.053 42.889C131.9 42.889 131.763 42.9265 131.642 43.0009C131.521 43.0754 131.425 43.1761 131.354 43.3024C131.283 43.4287 131.247 43.5709 131.247 43.729ZM130.787 43.7255C130.787 43.5561 130.819 43.3949 130.883 43.2412C130.948 43.0879 131.038 42.9523 131.154 42.8349C131.27 42.7174 131.405 42.6257 131.557 42.5588C131.709 42.4924 131.872 42.459 132.046 42.459C132.22 42.459 132.384 42.4924 132.537 42.5588C132.691 42.6257 132.826 42.7174 132.944 42.8349C133.061 42.9523 133.153 43.0879 133.22 43.2412C133.286 43.3949 133.32 43.5574 133.32 43.729C133.32 43.9028 133.286 44.0658 133.22 44.2182C133.153 44.3705 133.061 44.5048 132.944 44.6214C132.826 44.7376 132.691 44.8283 132.537 44.8939C132.384 44.9595 132.22 44.992 132.046 44.992C131.875 44.992 131.712 44.9595 131.559 44.8939C131.405 44.8283 131.27 44.738 131.154 44.6227C131.038 44.5079 130.948 44.3743 130.883 44.2217C130.819 44.0693 130.787 43.9041 130.787 43.7255Z" fill="black"/>
<path d="M136.868 41.443H137.497L138.416 43.741L138.3 43.7216L139.021 41.443H139.703L138.329 45.1199L136.868 41.443ZM135.107 41.443H135.852L136.665 43.7991L136.564 43.7556L137.236 42.0673L137.526 42.938L136.53 45.1291L135.107 41.443Z" fill="black"/>
<path d="M139.587 44.4109C139.655 44.348 139.729 44.3166 139.81 44.3166C139.884 44.3166 139.955 44.348 140.022 44.4109C140.09 44.4739 140.124 44.5505 140.124 44.6408C140.124 44.7406 140.09 44.8199 140.022 44.878C139.955 44.9361 139.884 44.9648 139.81 44.9648C139.729 44.9648 139.655 44.9361 139.587 44.878C139.519 44.8199 139.486 44.7424 139.486 44.6457C139.486 44.5523 139.519 44.4739 139.587 44.4109Z" fill="black"/>
<path d="M133.55 44.4109C133.617 44.348 133.692 44.3166 133.772 44.3166C133.846 44.3166 133.917 44.348 133.985 44.4109C134.053 44.4739 134.087 44.5505 134.087 44.6408C134.087 44.7406 134.053 44.8199 133.985 44.878C133.917 44.9361 133.846 44.9648 133.772 44.9648C133.692 44.9648 133.617 44.9361 133.55 44.878C133.482 44.8199 133.448 44.7424 133.448 44.6457C133.448 44.5523 133.482 44.4739 133.55 44.4109Z" fill="black"/>
<path d="M140.69 41.4235H141.324V44.3506H143.026V44.9648H140.69V41.4235Z" fill="black"/>
<path d="M143.491 44.4109C143.559 44.348 143.633 44.3166 143.714 44.3166C143.788 44.3166 143.859 44.348 143.926 44.4109C143.994 44.4739 144.028 44.5505 144.028 44.6408C144.028 44.7406 143.994 44.8199 143.926 44.878C143.859 44.9361 143.788 44.9648 143.714 44.9648C143.633 44.9648 143.559 44.9361 143.491 44.878C143.424 44.8199 143.39 44.7424 143.39 44.6457C143.39 44.5523 143.424 44.4739 143.491 44.4109Z" fill="black"/>
<path d="M144.594 41.4235H145.228V44.3506H146.93V44.9648H144.594V41.4235Z" fill="black"/>
</g>
</g>
<defs>
<clipPath id="clip0_924_101">
<rect width="207" height="50" fill="white"/>
</clipPath>
</defs>
</svg>
