<svg width="307" height="74" viewBox="0 0 307 74" fill="none" xmlns="http://www.w3.org/2000/svg">
<g clip-path="url(#clip0_583_3132)">
<path d="M265.963 41.253L265.41 40.9017L264.874 41.253L249.474 51.5538V70.9346H252.825V53.3432L265.41 44.9152L277.995 53.3432V70.9346H281.363V51.5538L265.963 41.253Z" fill="white"/>
<path d="M289.624 32.641V43.0254L265.46 26.8551L265.41 26.8217L265.376 26.8551L241.196 43.0254V32.641L265.41 16.454L266.784 17.3737L289.624 32.641ZM278.866 7.45727L275.85 5.43418L272.833 7.45727L267.086 11.2868L265.41 12.4238L263.734 11.3034L257.987 7.45727L254.987 5.43418L251.971 7.45727L226.215 24.6813V70.9346H229.566V26.4704L254.987 9.48069L262.394 14.4306L237.845 30.8516V70.9346H241.196V47.0556L265.41 30.8516L289.624 47.0556V70.9346H292.992V30.8516L268.426 14.4306L275.85 9.46402L301.253 26.4704V70.9346H304.605V24.6813L278.866 7.45727Z" fill="white"/>
<path d="M265.414 45.3731V62.5138L264.871 62.8756L253.201 70.6787V53.5406L265.414 45.3731Z" fill="white"/>
<path d="M254.981 9.92487L261.727 14.4342L237.467 30.6591V70.9307H229.946V26.6694L254.981 9.92487Z" fill="white"/>
<path d="M289.253 32.845V42.3169L265.659 26.5374L265.413 26.3793V16.9021L266.576 17.6774L289.253 32.845Z" fill="white"/>
<path d="M48.2556 40.1587C47.8897 40.1587 47.5769 40.0293 47.3179 39.7711C47.0585 39.5119 46.9291 39.2001 46.9291 38.835C46.9291 38.47 47.0585 38.1582 47.3179 37.899C47.5769 37.6408 47.8897 37.5114 48.2556 37.5114C48.6214 37.5114 48.9338 37.6408 49.1932 37.899C49.4523 38.1582 49.582 38.47 49.582 38.835C49.582 39.2001 49.4523 39.5119 49.1932 39.7711C48.9338 40.0293 48.6214 40.1587 48.2556 40.1587ZM44.2988 40.1587C43.933 40.1587 43.6202 40.0293 43.3612 39.7711C43.1018 39.5119 42.9724 39.2001 42.9724 38.835C42.9724 38.47 43.1018 38.1582 43.3612 37.899C43.6202 37.6408 43.933 37.5114 44.2988 37.5114C44.6647 37.5114 44.9771 37.6408 45.2365 37.899C45.4956 38.1582 45.6256 38.47 45.6256 38.835C45.6256 39.2001 45.4956 39.5119 45.2365 39.7711C44.9771 40.0293 44.6647 40.1587 44.2988 40.1587Z" fill="white"/>
<path d="M50.7485 47.7358V44.8375H52.8753V40.9119L55.7801 40.2726V47.2109C55.7801 47.3936 55.7034 47.5231 55.5515 47.5989C55.3988 47.6754 55.1702 47.7208 54.865 47.7358H50.7485ZM37.4835 47.7358L39.2216 44.8375H52.8753V47.7358H37.4835Z" fill="white"/>
<path d="M59.8282 45.7505L56.9238 44.3128V33.306L59.8282 32.6668V45.7505Z" fill="white"/>
<path d="M61.4978 45.4536V32.6666L64.4025 33.3059V44.3126L61.4978 45.4536ZM60.6747 49.7214C60.9181 49.7214 61.1165 49.6374 61.2692 49.4704C61.4215 49.3027 61.4978 49.105 61.4978 48.8768C61.4978 48.6487 61.4215 48.451 61.2692 48.2836C61.1165 48.116 60.9181 48.0326 60.6747 48.0326C60.4304 48.0326 60.2283 48.116 60.0685 48.2836C59.9083 48.451 59.8281 48.6487 59.8281 48.8768C59.8281 49.105 59.9083 49.3027 60.0685 49.4704C60.2283 49.6374 60.4304 49.7214 60.6747 49.7214ZM60.6747 52.5972C59.9883 52.5972 59.363 52.4295 58.7991 52.0952C58.2347 51.7602 57.7815 51.3111 57.4382 50.7483C57.0953 50.1851 56.9237 49.5616 56.9237 48.8768C56.9237 48.1921 57.0953 47.5646 57.4382 46.994C57.7815 46.4236 58.2387 45.9749 58.8105 45.6474C59.3824 45.3203 60.0033 45.1568 60.6747 45.1568C61.3605 45.1568 61.9818 45.3242 62.5383 45.6589C63.0947 45.9939 63.5408 46.439 63.8765 46.994C64.2116 47.5496 64.3796 48.1768 64.3796 48.8768C64.3796 49.5616 64.2116 50.1851 63.8765 50.7483C63.5408 51.3111 63.0947 51.7602 62.5383 52.0952C61.9818 52.4295 61.3605 52.5972 60.6747 52.5972ZM60.6747 48.0326C59.9883 48.0326 59.363 47.865 58.7991 47.5303C58.2347 47.1959 57.7815 46.743 57.4382 46.1726C57.0953 45.6017 56.9237 44.982 56.9237 44.3126H59.8281C59.8281 44.5558 59.9083 44.7575 60.0685 44.9173C60.2283 45.0771 60.4304 45.1568 60.6747 45.1568C60.9181 45.1568 61.1165 45.0735 61.2692 44.9058C61.4215 44.7385 61.4978 44.5408 61.4978 44.3126H64.4025C64.4025 44.997 64.2309 45.6213 63.888 46.1841C63.5447 46.7469 63.0947 47.1959 62.5383 47.5303C61.9818 47.865 61.3605 48.0326 60.6747 48.0326Z" fill="white"/>
<path d="M73.0017 44.0156L69.2969 40.2727C69.4947 40.2727 69.7691 40.2652 70.1199 40.2502C70.4707 40.2351 70.8365 40.193 71.2177 40.1247C71.5986 40.056 71.9533 39.938 72.2812 39.7704C72.609 39.6034 72.8491 39.3749 73.0017 39.086V44.0156ZM69.2969 44.8376C69.5405 44.8376 69.7387 44.7575 69.8913 44.5977C70.0436 44.4379 70.1199 44.244 70.1199 44.0156C70.1199 43.7724 70.0436 43.5708 69.8913 43.4106C69.7387 43.2511 69.5405 43.1711 69.2969 43.1711C69.0525 43.1711 68.8508 43.2511 68.6906 43.4106C68.5305 43.5708 68.4506 43.7724 68.4506 44.0156C68.4506 44.244 68.5305 44.4379 68.6906 44.5977C68.8508 44.7575 69.0525 44.8376 69.2969 44.8376ZM66.1861 50.7483C67.0554 50.9768 67.753 51.0529 68.2789 50.9768C68.8049 50.9003 69.2012 50.7369 69.4682 50.4862C69.7348 50.2352 69.9103 49.961 69.9945 49.6646C70.0777 49.3678 70.1199 49.1201 70.1199 48.9226V44.8144L73.0017 44.0156V48.3978C73.0017 49.2652 72.819 49.9724 72.4531 50.5202C72.087 51.068 71.618 51.4713 71.0464 51.7298C70.4746 51.9883 69.872 52.1138 69.2395 52.1066C68.6068 52.0985 68.016 51.9772 67.467 51.7416C66.9181 51.5053 66.491 51.1745 66.1861 50.7483ZM69.2969 47.7359C68.6107 47.7359 67.9852 47.5686 67.4212 47.2336C66.8569 46.8992 66.4036 46.4462 66.0604 45.8759C65.7175 45.3053 65.5458 44.6853 65.5458 44.0156C65.5458 43.3162 65.7175 42.6847 66.0604 42.1216C66.4036 41.5588 66.8611 41.1097 67.4326 40.7747C68.0045 40.4404 68.6255 40.2727 69.2969 40.2727C69.983 40.2727 70.604 40.4404 71.1607 40.7747C71.7172 41.1097 72.1629 41.5588 72.4986 42.1216C72.834 42.6847 73.0017 43.3162 73.0017 44.0156C73.0017 44.7003 72.834 45.3242 72.4986 45.8874C72.1629 46.4505 71.7172 46.8992 71.1607 47.2336C70.604 47.5686 69.983 47.7359 69.2969 47.7359Z" fill="white"/>
<path d="M75.0601 47.7358C74.7549 47.7208 74.5263 47.6754 74.374 47.5989C74.2214 47.5231 74.1454 47.3936 74.1454 47.2109V33.3059L77.0498 32.6666V44.8375H79.1767V47.7358H75.0601Z" fill="white"/>
<path d="M78.262 44.8375H86.0382V47.7358H78.262V44.8375Z" fill="white"/>
<path d="M85.1235 44.8375H92.8997V47.7358H85.1235V44.8375Z" fill="white"/>
<path d="M91.9846 44.8375H99.7608V47.7358H91.9846V44.8375Z" fill="white"/>
<path d="M106.268 36.0347C105.902 36.0347 105.589 35.9052 105.33 35.6467C105.071 35.3879 104.942 35.0761 104.942 34.711C104.942 34.3459 105.071 34.0341 105.33 33.775C105.589 33.5168 105.902 33.3873 106.268 33.3873C106.634 33.3873 106.946 33.5168 107.206 33.775C107.465 34.0341 107.595 34.3459 107.595 34.711C107.595 35.0761 107.465 35.3879 107.206 35.6467C106.946 35.9052 106.634 36.0347 106.268 36.0347ZM103.156 36.0347C102.791 36.0347 102.478 35.9052 102.219 35.647C101.959 35.3879 101.83 35.0761 101.83 34.711C101.83 34.3459 101.959 34.0341 102.219 33.775C102.478 33.5168 102.791 33.3873 103.156 33.3873C103.523 33.3873 103.835 33.5168 104.094 33.775C104.353 34.0341 104.483 34.3459 104.483 34.711C104.483 35.0761 104.353 35.3879 104.094 35.647C103.835 35.9052 103.523 36.0347 103.156 36.0347Z" fill="white"/>
<path d="M107.079 44.8375H111.196V47.7358H107.079V44.8375ZM104.747 41.1172C104.975 41.1172 105.17 41.0374 105.33 40.8776C105.49 40.7178 105.57 40.5164 105.57 40.2726C105.57 40.0445 105.49 39.8504 105.33 39.6909C105.17 39.5307 104.975 39.4513 104.747 39.4513C104.503 39.4513 104.297 39.5307 104.129 39.6909C103.961 39.8504 103.877 40.0445 103.877 40.2726C103.877 40.5164 103.961 40.7178 104.129 40.8776C104.297 41.0374 104.503 41.1172 104.747 41.1172ZM104.747 44.0155C104.06 44.0155 103.435 43.8488 102.871 43.5138C102.307 43.1791 101.853 42.7265 101.51 42.1555C101.167 41.5852 100.996 40.9573 100.996 40.2726C100.996 39.5882 101.167 38.9643 101.51 38.4012C101.853 37.8384 102.307 37.3896 102.871 37.0546C103.435 36.7203 104.06 36.5526 104.747 36.5526C105.433 36.5526 106.054 36.7203 106.611 37.0546C107.167 37.3896 107.613 37.8384 107.948 38.4012C108.284 38.9643 108.452 39.5882 108.452 40.2726C108.452 40.9573 108.284 41.5852 107.948 42.1555C107.613 42.7265 107.167 43.1791 106.611 43.5138C106.054 43.8488 105.433 44.0155 104.747 44.0155ZM98.8458 47.7358V44.8375H105.547V41.9159L108.452 40.2726V47.2113C108.452 47.3936 108.375 47.5231 108.223 47.5989C108.071 47.6754 107.842 47.7211 107.536 47.7358H98.8458Z" fill="white"/>
<path d="M116.342 47.7358L117.829 44.8375H122.403V47.7358H116.342ZM116.342 44.8375C116.586 44.8375 116.784 44.7574 116.937 44.5976C117.089 44.4378 117.165 44.244 117.165 44.0155C117.165 43.7723 117.089 43.5707 116.937 43.4105C116.784 43.2511 116.586 43.171 116.342 43.171C116.098 43.171 115.896 43.2511 115.736 43.4105C115.576 43.5707 115.496 43.7723 115.496 44.0155C115.496 44.244 115.576 44.4378 115.736 44.5976C115.896 44.7574 116.098 44.8375 116.342 44.8375ZM116.342 47.7358C115.656 47.7358 115.031 47.5685 114.467 47.2335C113.902 46.8992 113.449 46.4504 113.106 45.8873C112.763 45.3241 112.591 44.7002 112.591 44.0155C112.591 43.1791 112.843 42.4297 113.346 41.7679C113.849 41.1054 114.489 40.6606 115.267 40.4325C115.496 40.3717 115.694 40.2501 115.862 40.0674C116.029 39.8847 116.182 39.5271 116.319 38.9944C116.502 39.5422 116.681 39.9 116.857 40.0674C117.032 40.235 117.234 40.3641 117.463 40.4553C118.21 40.6835 118.827 41.125 119.315 41.779C119.803 42.4333 120.047 43.1791 120.047 44.0155C120.047 44.7002 119.879 45.3241 119.544 45.8873C119.208 46.4504 118.762 46.8992 118.206 47.2335C117.649 47.5685 117.028 47.7358 116.342 47.7358ZM110.281 47.7358V44.8375H114.855L116.342 47.7358H110.281Z" fill="white"/>
<path d="M124.233 44.8375H129.264V47.7358H124.233V44.8375ZM121.488 47.7358V44.8375H123.615V33.3062L126.52 32.6669V47.2113C126.52 47.3936 126.443 47.5231 126.291 47.5989C126.138 47.6754 125.91 47.7211 125.605 47.7358H121.488Z" fill="white"/>
<path d="M128.35 47.7358V44.8375H130.476V33.3059L133.381 32.6666V47.2109C133.381 47.3936 133.305 47.5231 133.152 47.5989C133 47.6754 132.771 47.7208 132.466 47.7358H128.35Z" fill="white"/>
<path d="M142.186 39.9307C141.82 39.9307 141.507 39.8012 141.248 39.5427C140.989 39.2839 140.859 38.9721 140.859 38.607C140.859 38.2419 140.989 37.9301 141.248 37.6709C141.507 37.4128 141.82 37.2833 142.186 37.2833C142.552 37.2833 142.864 37.4128 143.124 37.6709C143.383 37.9301 143.512 38.2419 143.512 38.607C143.512 38.9721 143.383 39.2839 143.124 39.5427C142.864 39.8012 142.552 39.9307 142.186 39.9307Z" fill="white"/>
<path d="M142.003 52.3921C141.332 52.3921 140.718 52.2699 140.162 52.027C139.605 51.7835 139.129 51.4485 138.732 51.023C138.336 50.5965 138.031 50.102 137.818 49.5392C137.604 48.976 137.498 48.375 137.498 47.7364C137.498 47.0667 137.638 46.4277 137.921 45.8192C138.203 45.2106 138.564 44.6668 139.007 44.1873C139.449 43.7082 139.907 43.3166 140.379 43.0117C140.41 43.3013 140.391 43.5827 140.322 43.8562C140.253 44.1304 140.12 44.3965 139.922 44.655C140.09 44.7311 140.231 44.8684 140.345 45.0658C140.459 45.2639 140.539 45.4731 140.585 45.6937C140.631 45.9143 140.631 46.1081 140.585 46.2754C140.417 46.1538 140.253 46.0627 140.094 46.0019C139.933 45.9408 139.769 45.9182 139.602 45.9332C139.236 45.9486 138.934 46.1385 138.698 46.5036C138.462 46.869 138.344 47.2798 138.344 47.7364C138.344 48.3596 138.473 48.9002 138.732 49.3565C138.992 49.8131 139.35 50.1631 139.808 50.4066C140.265 50.6497 140.791 50.7717 141.386 50.7717C141.965 50.7717 142.479 50.6308 142.929 50.3494C143.379 50.0677 143.73 49.6797 143.981 49.1855C144.233 48.691 144.351 48.1243 144.336 47.485C144.32 47.12 144.252 46.7585 144.13 46.4009C144.008 46.0437 143.859 45.709 143.684 45.3969C143.509 45.0851 143.345 44.8227 143.192 44.6096L144.633 41.7567C145.213 42.4567 145.731 43.2745 146.188 44.2099C146.646 45.1459 146.874 46.2836 146.874 47.622C146.874 48.5956 146.649 49.4437 146.2 50.167C145.75 50.8893 145.159 51.441 144.427 51.8218C143.695 52.2019 142.887 52.3921 142.003 52.3921Z" fill="white"/>
<path d="M153.096 46.4123C153.004 46.7473 152.771 47.0362 152.398 47.2797C152.024 47.5232 151.59 47.6906 151.094 47.7814C150.599 47.8729 150.118 47.8651 149.654 47.7589C149.188 47.6526 148.8 47.4278 148.487 47.0856C148.175 46.7431 148.018 46.2522 148.018 45.6135V33.306L150.923 32.6667V45.6135C150.923 45.9482 151.007 46.1953 151.175 46.3551C151.342 46.5149 151.548 46.6065 151.792 46.629C152.036 46.6519 152.28 46.6368 152.524 46.5836C152.768 46.5303 152.958 46.4731 153.096 46.4123Z" fill="white"/>
<path d="M161.123 44.0156L157.418 40.2727C157.616 40.2727 157.89 40.2652 158.241 40.2502C158.592 40.2351 158.958 40.193 159.339 40.1247C159.72 40.056 160.074 39.938 160.402 39.7704C160.73 39.6034 160.97 39.3749 161.123 39.086V44.0156ZM157.349 47.7359L158.195 44.8376H162.701V47.7359H157.349ZM157.418 44.8376C157.661 44.8376 157.86 44.7575 158.013 44.5977C158.165 44.4379 158.241 44.244 158.241 44.0156C158.241 43.7724 158.165 43.5708 158.013 43.4106C157.86 43.2511 157.661 43.1711 157.418 43.1711C157.173 43.1711 156.972 43.2511 156.812 43.4106C156.651 43.5708 156.572 43.7724 156.572 44.0156C156.572 44.244 156.651 44.4379 156.812 44.5977C156.972 44.7575 157.173 44.8376 157.418 44.8376ZM154.307 50.7483C155.177 50.9768 155.874 51.0529 156.4 50.9768C156.926 50.9003 157.323 50.7369 157.589 50.4862C157.856 50.2352 158.031 49.961 158.115 49.6646C158.199 49.3678 158.241 49.1201 158.241 48.9226V44.8144L161.123 44.0156V48.3978C161.123 49.2652 160.94 49.9724 160.574 50.5202C160.208 51.068 159.739 51.4713 159.167 51.7298C158.596 51.9883 157.993 52.1138 157.361 52.1066C156.728 52.0985 156.137 51.9772 155.588 51.7416C155.039 51.5053 154.612 51.1745 154.307 50.7483ZM157.418 47.7359C156.732 47.7359 156.106 47.5686 155.542 47.2336C154.978 46.8992 154.525 46.4462 154.182 45.8759C153.839 45.3053 153.667 44.6853 153.667 44.0156C153.667 43.3162 153.839 42.6847 154.182 42.1216C154.525 41.5588 154.982 41.1097 155.554 40.7747C156.125 40.4404 156.747 40.2727 157.418 40.2727C158.104 40.2727 158.725 40.4404 159.282 40.7747C159.838 41.1097 160.284 41.5588 160.62 42.1216C160.955 42.6847 161.123 43.3162 161.123 44.0156C161.123 44.7003 160.955 45.3242 160.62 45.8874C160.284 46.4505 159.838 46.8992 159.282 47.2336C158.725 47.5686 158.104 47.7359 157.418 47.7359Z" fill="white"/>
<path d="M161.786 44.8375H173.922V47.7358H161.786V44.8375Z" fill="white"/>
<path d="M168.648 44.8375H180.783V47.7358H168.648V44.8375Z" fill="white"/>
<path d="M179.869 44.8375H187.645V47.7358H179.869V44.8375Z" fill="white"/>
<path d="M192.676 52.4829C192.31 52.4829 191.998 52.3535 191.738 52.0953C191.479 51.8361 191.35 51.5243 191.35 51.1592C191.35 50.7942 191.479 50.4824 191.738 50.2232C191.998 49.965 192.31 49.8356 192.676 49.8356C193.042 49.8356 193.354 49.965 193.614 50.2232C193.873 50.4824 194.003 50.7942 194.003 51.1592C194.003 51.5243 193.873 51.8361 193.614 52.0953C193.354 52.3535 193.042 52.4829 192.676 52.4829Z" fill="white"/>
<path d="M197.923 44.8373L196.549 47.7363H186.73V44.8373H190.459C189.579 43.9742 188.699 43.111 187.819 42.2478C186.207 40.8814 184.094 40.6794 182.712 41.6321C181.66 42.356 181.353 43.5251 181.266 43.9327H179.196C179.357 43.1492 179.789 41.6001 181.081 40.2146C182.309 38.8965 184.758 37.263 187.108 37.9176C188.797 38.388 190.105 39.9489 190.891 40.8885C191.169 41.2206 191.382 41.5115 191.523 41.7141C191.783 42.0308 192.058 42.3338 192.344 42.6221C193.022 43.3094 193.7 43.8474 194.382 44.2425C195.06 44.6416 195.681 44.8373 196.244 44.8373H197.923Z" fill="white"/>
<path d="M196.55 51.1592C197.282 51.357 197.888 51.4367 198.369 51.3991C198.849 51.3609 199.218 51.2354 199.478 51.0226C199.737 50.8092 199.916 50.5392 200.015 50.2121C200.114 49.8849 200.164 49.5388 200.164 49.1737V40.9121L203.068 40.2728V49.1051C203.068 49.9117 202.897 50.5696 202.554 51.0795C202.211 51.589 201.765 51.9619 201.216 52.1976C200.667 52.4335 200.091 52.5437 199.489 52.529C198.887 52.5136 198.323 52.3881 197.796 52.1521C197.271 51.9162 196.855 51.5854 196.55 51.1592Z" fill="white"/>
<path d="M204.28 31.3203V30.5673C204.28 30.2784 204.288 30.0463 204.303 29.8711C204.318 29.6966 204.357 29.4946 204.418 29.2662C204.54 28.8099 204.745 28.4334 205.035 28.1366C205.325 27.8399 205.767 27.6915 206.362 27.6915C206.575 27.6915 206.83 27.7565 207.128 27.8856C207.425 28.0151 207.65 28.2546 207.802 28.6043C207.711 28.5589 207.513 28.4984 207.208 28.422C206.903 28.3461 206.644 28.3383 206.43 28.3991C206.186 28.4602 206.011 28.5703 205.904 28.7298C205.797 28.89 205.736 29.042 205.721 29.1867C205.706 29.3312 205.698 29.4338 205.698 29.4946C205.698 29.7992 205.779 30.012 205.939 30.1336C206.099 30.2558 206.289 30.3277 206.51 30.3503C206.731 30.3731 206.934 30.3846 207.117 30.3846H207.711L207.734 31.3203H204.28ZM202.611 31.5259L203.297 30.3846H208.786L208.1 31.5259H202.611Z" fill="white"/>
<path d="M207.117 45.7505L204.212 44.3128V33.306L207.117 32.6668V45.7505Z" fill="white"/>
<path d="M208.786 45.4536V32.6666L211.69 33.3059V44.3126L208.786 45.4536ZM207.963 49.7214C208.206 49.7214 208.405 49.6374 208.557 49.4704C208.71 49.3027 208.786 49.105 208.786 48.8768C208.786 48.6487 208.71 48.451 208.557 48.2836C208.405 48.116 208.206 48.0326 207.963 48.0326C207.718 48.0326 207.516 48.116 207.357 48.2836C207.196 48.451 207.117 48.6487 207.117 48.8768C207.117 49.105 207.196 49.3027 207.357 49.4704C207.516 49.6374 207.718 49.7214 207.963 49.7214ZM207.963 52.5972C207.276 52.5972 206.651 52.4295 206.087 52.0952C205.523 51.7602 205.069 51.3111 204.726 50.7483C204.383 50.1851 204.212 49.5616 204.212 48.8768C204.212 48.1921 204.383 47.5646 204.726 46.994C205.069 46.4236 205.527 45.9749 206.098 45.6474C206.67 45.3203 207.291 45.1568 207.963 45.1568C208.649 45.1568 209.27 45.3242 209.826 45.6589C210.383 45.9939 210.829 46.439 211.165 46.994C211.5 47.5496 211.668 48.1768 211.668 48.8768C211.668 49.5616 211.5 50.1851 211.165 50.7483C210.829 51.3111 210.383 51.7602 209.826 52.0952C209.27 52.4295 208.649 52.5972 207.963 52.5972ZM207.963 48.0326C207.276 48.0326 206.651 47.865 206.087 47.5303C205.523 47.1959 205.069 46.743 204.726 46.1726C204.383 45.6017 204.212 44.982 204.212 44.3126H207.117C207.117 44.5558 207.196 44.7575 207.357 44.9173C207.516 45.0771 207.718 45.1568 207.963 45.1568C208.206 45.1568 208.405 45.0735 208.557 44.9058C208.71 44.7385 208.786 44.5408 208.786 44.3126H211.69C211.69 44.997 211.519 45.6213 211.176 46.1841C210.833 46.7469 210.383 47.1959 209.826 47.5303C209.27 47.865 208.649 48.0326 207.963 48.0326Z" fill="white"/>
<path d="M217.911 46.4123C217.82 46.7473 217.587 47.0362 217.214 47.2797C216.84 47.5232 216.406 47.6906 215.91 47.7814C215.415 47.8729 214.934 47.8651 214.47 47.7589C214.004 47.6526 213.615 47.4278 213.303 47.0856C212.99 46.7431 212.834 46.2522 212.834 45.6135V33.306L215.739 32.6667V45.6135C215.739 45.9482 215.823 46.1953 215.991 46.3551C216.158 46.5149 216.364 46.6065 216.608 46.629C216.852 46.6519 217.096 46.6368 217.34 46.5836C217.584 46.5303 217.774 46.4731 217.911 46.4123Z" fill="white"/>
<path d="M7.40155 46.0605C7.54894 46.0605 7.67437 46.0092 7.77754 45.9062C7.88071 45.8033 7.93246 45.6784 7.93246 45.531C7.93246 45.3741 7.88071 45.2441 7.77754 45.1414C7.67437 45.0385 7.54894 44.9868 7.40155 44.9868C7.24435 44.9868 7.1117 45.0385 7.00362 45.1414C6.89522 45.2441 6.8415 45.3741 6.8415 45.531C6.8415 45.6784 6.89522 45.8033 7.00362 45.9062C7.1117 46.0092 7.24435 46.0605 7.40155 46.0605ZM7.40155 47.929C6.95941 47.929 6.55624 47.8211 6.19303 47.6051C5.82916 47.3897 5.53669 47.0975 5.31561 46.7298C5.09454 46.3622 4.98417 45.9628 4.98417 45.531C4.98417 45.0898 5.0821 44.6999 5.27893 44.3616C5.47544 44.023 5.73581 43.7462 6.06005 43.5302C6.38429 43.3148 6.7236 43.187 7.07732 43.1478C7.12644 42.9713 7.21225 42.8072 7.3354 42.6549C7.45789 42.5033 7.55385 42.3879 7.62263 42.3091C8.37919 42.7703 8.92974 43.2582 9.27396 43.773C9.61752 44.2878 9.78979 44.8741 9.78979 45.531C9.78979 45.9722 9.68138 46.3746 9.46555 46.7374C9.24907 47.1001 8.96183 47.3897 8.60321 47.6051C8.24425 47.8211 7.8437 47.929 7.40155 47.929ZM3.87848 50.5914C3.89813 50.5914 3.96691 50.5718 4.08481 50.5329C4.20272 50.4933 4.33045 50.4221 4.46801 50.3191C4.60589 50.2162 4.72609 50.074 4.82925 49.8929C4.93242 49.7112 4.98417 49.4831 4.98417 49.2085V45.5163L6.85624 46.5756V49.2085C6.85624 49.6109 6.74292 49.9465 6.51727 50.2162C6.29095 50.4858 6.01093 50.6819 5.67686 50.8048C5.3428 50.927 5.01102 50.9711 4.68187 50.9371C4.35272 50.9028 4.08481 50.7878 3.87848 50.5914Z" fill="white"/>
<path d="M10.7626 46.2447C10.9689 46.0535 11.1949 45.9577 11.4408 45.9577C11.6665 45.9577 11.883 46.0535 12.0893 46.2447C12.2957 46.4359 12.3988 46.6689 12.3988 46.9435C12.3988 47.2474 12.2957 47.4876 12.0893 47.6645C11.883 47.8406 11.6665 47.9292 11.4408 47.9292C11.1949 47.9292 10.9689 47.8406 10.7626 47.6645C10.5562 47.4876 10.4531 47.2523 10.4531 46.9582C10.4531 46.6738 10.5562 46.4359 10.7626 46.2447Z" fill="white"/>
<path d="M15.4651 46.0605C15.6125 46.0605 15.7379 46.0092 15.8411 45.9062C15.9442 45.8033 15.996 45.6784 15.996 45.531C15.996 45.3741 15.9442 45.2441 15.8411 45.1414C15.7379 45.0385 15.6125 44.9868 15.4651 44.9868C15.3079 44.9868 15.1752 45.0385 15.0672 45.1414C14.9588 45.2441 14.905 45.3741 14.905 45.531C14.905 45.6784 14.9588 45.8033 15.0672 45.9062C15.1752 46.0092 15.3079 46.0605 15.4651 46.0605ZM15.4651 47.929C15.0229 47.929 14.6198 47.8211 14.2566 47.6051C13.8927 47.3897 13.6002 47.0975 13.3792 46.7298C13.1581 46.3622 13.0477 45.9628 13.0477 45.531C13.0477 45.0898 13.1456 44.6999 13.3425 44.3616C13.539 44.023 13.7994 43.7462 14.1236 43.5302C14.4478 43.3148 14.7871 43.187 15.1409 43.1478C15.19 42.9713 15.2758 42.8072 15.3989 42.6549C15.5214 42.5033 15.6174 42.3879 15.6862 42.3091C16.4427 42.7703 16.9933 43.2582 17.3372 43.773C17.6811 44.2878 17.8533 44.8741 17.8533 45.531C17.8533 45.9722 17.7449 46.3746 17.5291 46.7374C17.3126 47.1001 17.0254 47.3897 16.6667 47.6051C16.3078 47.8211 15.9072 47.929 15.4651 47.929ZM11.942 50.5914C11.9617 50.5914 12.0304 50.5718 12.1484 50.5329C12.2663 50.4933 12.394 50.4221 12.5315 50.3191C12.6694 50.2162 12.7896 50.074 12.8928 49.8929C12.996 49.7112 13.0477 49.4831 13.0477 49.2085V45.5163L14.9198 46.5756V49.2085C14.9198 49.6109 14.8065 49.9465 14.5808 50.2162C14.3545 50.4858 14.0745 50.6819 13.7404 50.8048C13.4063 50.927 13.0746 50.9711 12.7454 50.9371C12.4163 50.9028 12.1484 50.7878 11.942 50.5914Z" fill="white"/>
<path d="M18.826 46.2447C19.0327 46.0535 19.2584 45.9577 19.5043 45.9577C19.73 45.9577 19.9465 46.0535 20.1528 46.2447C20.3591 46.4359 20.4623 46.6689 20.4623 46.9435C20.4623 47.2474 20.3591 47.4876 20.1528 47.6645C19.9465 47.8406 19.73 47.9292 19.5043 47.9292C19.2584 47.9292 19.0327 47.8406 18.826 47.6645C18.6197 47.4876 18.5165 47.2523 18.5165 46.9582C18.5165 46.6738 18.6197 46.4359 18.826 46.2447Z" fill="white"/>
<path d="M27.5528 41.4268C27.3169 41.4268 27.1155 41.3434 26.9485 41.1767C26.7811 41.0097 26.6979 40.809 26.6979 40.5737C26.6979 40.3381 26.7811 40.1374 26.9485 39.9704C27.1155 39.804 27.3169 39.7204 27.5528 39.7204C27.7886 39.7204 27.99 39.804 28.1573 39.9704C28.324 40.1374 28.4079 40.3381 28.4079 40.5737C28.4079 40.809 28.324 41.0097 28.1573 41.1767C27.99 41.3434 27.7886 41.4268 27.5528 41.4268Z" fill="white"/>
<path d="M21.111 47.9292L22.2314 46.0607H31.3268C31.3363 45.7473 31.2554 45.4897 31.0835 45.2887C30.9115 45.0877 30.5503 44.9874 30 44.9874H22.7325L24.9141 41.3537L25.0614 41.4563L24.2951 43.1189H30C30.6878 43.1189 31.2407 43.2169 31.6582 43.413C32.0762 43.6091 32.3955 43.869 32.6166 44.1925C32.8376 44.5164 32.9873 44.8746 33.0662 45.2665C33.1448 45.6587 33.1864 46.0561 33.1913 46.4581C33.1963 46.8605 33.1989 47.2379 33.1989 47.5909C33.1989 47.7086 33.1497 47.7919 33.0515 47.841C32.9529 47.8903 32.8055 47.9194 32.6093 47.9292H21.111Z" fill="white"/>
<path d="M6.52957 63.6444H9.40154L9.96618 65.004H6.03862L6.52957 63.6444ZM3.87866 66.9268L7.90447 57.5937H7.99028L12.0158 66.9268H10.1502L7.46233 60.1172L8.62828 59.3328L5.47399 66.9268H3.87866Z" fill="white"/>
<path d="M13.4272 57.9614H15.035V65.3714H19.3553V66.9268H13.4272V57.9614Z" fill="white"/>
<path d="M23.8162 63.6444H26.6882L27.2528 65.004H23.3253L23.8162 63.6444ZM21.165 66.9268L25.1911 57.5937H25.2769L29.3024 66.9268H27.4369L24.749 60.1172L25.9149 59.3328L22.7606 66.9268H21.165Z" fill="white"/>
<path d="M35.2061 63.3872L37.4643 66.9268H35.5867L33.2794 63.4238L35.2061 63.3872ZM33.5983 62.3952C33.991 62.3952 34.296 62.3158 34.5128 62.1563C34.7296 61.9968 34.8809 61.8073 34.9667 61.5866C35.0528 61.3664 35.0957 61.1621 35.0957 60.9745C35.0957 60.8519 35.0771 60.7091 35.0404 60.5457C35.0037 60.3826 34.934 60.2211 34.8318 60.062C34.7296 59.9028 34.5802 59.7724 34.3837 59.6701C34.1875 59.5681 33.9337 59.5168 33.6229 59.5168H32.3217V62.3952H33.5983ZM33.3406 57.9614C34.0523 57.9614 34.6641 58.0797 35.1753 58.3167C35.6866 58.5533 36.0793 58.8922 36.3537 59.3328C36.6279 59.774 36.7648 60.3006 36.7648 60.913C36.7648 61.2726 36.7097 61.6318 36.599 61.9909C36.4887 62.3501 36.3125 62.677 36.0714 62.9708C35.83 63.2646 35.5068 63.5016 35.102 63.6813C34.6968 63.8607 34.1997 63.9506 33.6105 63.9506H32.3217V66.9268H30.7139V57.9614H33.3406Z" fill="white"/>
<path d="M41.4408 65.1143C41.4408 65.8736 41.2895 66.5246 40.9869 67.0678C40.684 67.6107 40.2667 68.0271 39.7348 68.3173C39.2029 68.6065 38.5892 68.7644 37.8939 68.7886V67.2211C38.4585 67.1881 38.9187 67.0086 39.2747 66.6821C39.6303 66.3553 39.8085 65.8203 39.8085 65.0777V57.9616H41.4408V65.1143Z" fill="white"/>
<path d="M44.9511 62.4564C44.9511 63.0121 45.0821 63.518 45.3441 63.9752C45.6058 64.4328 45.9595 64.7959 46.4056 65.0652C46.8513 65.3349 47.3524 65.4695 47.9088 65.4695C48.4489 65.4695 48.9379 65.3349 49.3758 65.0652C49.8133 64.7959 50.1592 64.4328 50.413 63.9752C50.6662 63.518 50.7933 63.0121 50.7933 62.4564C50.7933 61.8851 50.6623 61.3704 50.4006 60.9131C50.1386 60.4562 49.7888 60.0925 49.3512 59.8232C48.9133 59.5535 48.4204 59.4189 47.8722 59.4189C47.3157 59.4189 46.8185 59.5535 46.381 59.8232C45.9431 60.0925 45.5956 60.4562 45.3379 60.9131C45.0801 61.3704 44.9511 61.8851 44.9511 62.4564ZM43.282 62.444C43.282 61.8319 43.3986 61.2481 43.6318 60.6925C43.865 60.1376 44.1922 59.6477 44.6137 59.2231C45.0349 58.7985 45.5219 58.4658 46.0741 58.225C46.6266 57.9841 47.2175 57.8638 47.8476 57.8638C48.4777 57.8638 49.0709 57.9841 49.6273 58.225C50.1838 58.4658 50.6747 58.7985 51.1001 59.2231C51.5256 59.6477 51.859 60.1376 52.1004 60.6925C52.3418 61.2481 52.4626 61.8358 52.4626 62.4564C52.4626 63.0856 52.3418 63.6749 52.1004 64.2262C51.859 64.7776 51.5256 65.2636 51.1001 65.6836C50.6747 66.1045 50.1838 66.433 49.6273 66.6696C49.0709 66.9069 48.4777 67.0249 47.8476 67.0249C47.2256 67.0249 46.6364 66.9069 46.0803 66.6696C45.5236 66.433 45.0349 66.1065 44.6137 65.6901C44.1922 65.2734 43.865 64.7897 43.6318 64.2387C43.3986 63.6873 43.282 63.0895 43.282 62.444Z" fill="white"/>
<path d="M57.2737 58.0102H58.8693L61.2013 63.8282L60.9065 63.7792L62.7353 58.0102H64.4659L60.9802 67.3187L57.2737 58.0102ZM52.8064 58.0102H54.6962L56.7582 63.9753L56.5004 63.8651L58.2065 59.5902L58.943 61.7953L56.4146 67.3433L52.8064 58.0102Z" fill="white"/>
<path d="M66.5647 63.6444H69.4366L70.0013 65.004H66.0737L66.5647 63.6444ZM63.9138 66.9268L67.9396 57.5937H68.0254L72.0509 66.9268H70.1853L67.4974 60.1172L68.6634 59.3328L65.5091 66.9268H63.9138Z" fill="white"/>
<path d="M81.4279 67.2695L74.5793 60.876L75.0581 61.1212L75.0948 66.9267H73.4625V57.6306H73.5237L80.2499 63.9996L79.8939 63.8649L79.8569 57.9614H81.4771V67.2695H81.4279Z" fill="white"/>
<path d="M92.1796 66.2043C92.0649 66.286 91.8769 66.3942 91.6149 66.5292C91.3529 66.6638 91.0359 66.7821 90.6638 66.8841C90.2914 66.9861 89.8801 67.0331 89.4301 67.025C88.7262 67.0086 88.0964 66.8821 87.5403 66.6452C86.9835 66.4086 86.5109 66.0821 86.1225 65.6654C85.7337 65.249 85.437 64.7711 85.2326 64.2322C85.0279 63.6932 84.9261 63.1219 84.9261 62.5176C84.9261 61.8319 85.0302 61.2054 85.2389 60.6377C85.4475 60.0703 85.7481 59.5804 86.1408 59.1683C86.5339 58.7558 86.9979 58.4352 87.5341 58.2064C88.0699 57.9779 88.665 57.8639 89.3197 57.8639C89.9007 57.8639 90.4201 57.941 90.8783 58.0963C91.3369 58.2515 91.7132 58.4228 92.0076 58.6107L91.3696 60.1295C91.1567 59.9746 90.8783 59.817 90.5348 59.6579C90.1912 59.4987 89.8025 59.4189 89.3688 59.4189C88.8779 59.4189 88.4217 59.552 88.0005 59.817C87.5786 60.0824 87.2413 60.4419 86.9878 60.8949C86.7343 61.3482 86.6072 61.8607 86.6072 62.432C86.6072 63.0281 86.7238 63.555 86.957 64.0122C87.1902 64.4695 87.5216 64.8264 87.9513 65.0836C88.381 65.3408 88.8861 65.4696 89.4671 65.4696C89.9416 65.4696 90.3507 65.3941 90.6946 65.2431C91.0378 65.0918 91.308 64.9306 91.5045 64.7594L92.1796 66.2043Z" fill="white"/>
<path d="M95.1373 62.4564C95.1373 63.0121 95.2683 63.518 95.5303 63.9752C95.792 64.4328 96.1457 64.7959 96.5918 65.0652C97.0375 65.3349 97.5386 65.4695 98.0951 65.4695C98.6351 65.4695 99.1241 65.3349 99.562 65.0652C99.9996 64.7959 100.345 64.4328 100.599 63.9752C100.852 63.518 100.979 63.0121 100.979 62.4564C100.979 61.8851 100.848 61.3704 100.587 60.9131C100.325 60.4562 99.975 60.0925 99.5374 59.8232C99.0995 59.5535 98.6066 59.4189 98.0584 59.4189C97.5019 59.4189 97.0048 59.5535 96.5672 59.8232C96.1293 60.0925 95.7818 60.4562 95.5241 60.9131C95.2663 61.3704 95.1373 61.8851 95.1373 62.4564ZM93.4683 62.444C93.4683 61.8319 93.5849 61.2481 93.818 60.6925C94.0512 60.1376 94.3784 59.6477 94.7999 59.2231C95.2211 58.7985 95.7081 58.4658 96.2603 58.225C96.8128 57.9841 97.4037 57.8638 98.0338 57.8638C98.664 57.8638 99.2571 57.9841 99.8135 58.225C100.37 58.4658 100.861 58.7985 101.287 59.2231C101.712 59.6477 102.045 60.1376 102.287 60.6925C102.528 61.2481 102.649 61.8358 102.649 62.4564C102.649 63.0856 102.528 63.6749 102.287 64.2262C102.045 64.7776 101.712 65.2636 101.287 65.6836C100.861 66.1045 100.37 66.433 99.8135 66.6696C99.2571 66.9069 98.664 67.0249 98.0338 67.0249C97.4119 67.0249 96.8227 66.9069 96.2665 66.6696C95.7098 66.433 95.2211 66.1065 94.7999 65.6901C94.3784 65.2734 94.0512 64.7897 93.818 64.2387C93.5849 63.6873 93.4683 63.0895 93.4683 62.444Z" fill="white"/>
<path d="M112.455 67.2695L105.606 60.876L106.085 61.1212L106.122 66.9267H104.49V57.6306H104.551L111.277 63.9996L110.921 63.8649L110.884 57.9614H112.504V67.2695H112.455Z" fill="white"/>
<path d="M119.66 59.9702C119.332 59.7908 118.989 59.6414 118.629 59.5231C118.269 59.4048 117.929 59.3453 117.61 59.3453C117.201 59.3453 116.877 59.4313 116.64 59.6025C116.403 59.7741 116.284 60.0232 116.284 60.3497C116.284 60.5785 116.37 60.7805 116.542 60.9563C116.714 61.1318 116.937 61.2848 117.211 61.4152C117.485 61.5459 117.77 61.6688 118.064 61.7828C118.424 61.9136 118.77 62.079 119.101 62.279C119.433 62.479 119.706 62.7503 119.924 63.0931C120.14 63.4363 120.249 63.8935 120.249 64.4652C120.249 64.9224 120.13 65.345 119.893 65.7326C119.655 66.1209 119.31 66.4327 118.856 66.6696C118.401 66.9066 117.851 67.0249 117.205 67.0249C116.665 67.0249 116.131 66.9432 115.603 66.7798C115.075 66.6167 114.595 66.3797 114.161 66.0696L114.873 64.808C115.176 65.0365 115.53 65.2267 115.935 65.3777C116.34 65.529 116.714 65.6042 117.058 65.6042C117.286 65.6042 117.518 65.5672 117.751 65.4937C117.984 65.4205 118.179 65.3018 118.334 65.1388C118.489 64.9753 118.567 64.7511 118.567 64.4652C118.567 64.2527 118.502 64.0651 118.371 63.9017C118.24 63.7386 118.066 63.5915 117.849 63.4608C117.632 63.3304 117.397 63.2199 117.143 63.13C116.865 63.0238 116.579 62.9036 116.284 62.7689C115.99 62.6342 115.716 62.4689 115.462 62.2728C115.208 62.077 115.004 61.8338 114.848 61.5439C114.693 61.254 114.615 60.8968 114.615 60.4722C114.615 59.966 114.73 59.5274 114.959 59.1558C115.188 58.7842 115.511 58.4881 115.929 58.2674C116.346 58.0472 116.828 57.9288 117.377 57.9125C118.056 57.9125 118.62 57.9919 119.07 58.1514C119.52 58.3106 119.921 58.5047 120.273 58.7328L119.66 59.9702Z" fill="white"/>
<path d="M121.427 57.9614H127.453V59.5168H125.207V66.9268H123.587V59.5168H121.427V57.9614Z" fill="white"/>
<path d="M133.725 63.3872L135.983 66.9268H134.105L131.798 63.4238L133.725 63.3872ZM132.117 62.3952C132.51 62.3952 132.814 62.3158 133.032 62.1563C133.248 61.9968 133.4 61.8073 133.486 61.5866C133.572 61.3664 133.615 61.1621 133.615 60.9745C133.615 60.8519 133.596 60.7091 133.559 60.5457C133.523 60.3826 133.453 60.2211 133.351 60.062C133.248 59.9028 133.099 59.7724 132.903 59.6701C132.706 59.5681 132.453 59.5168 132.142 59.5168H130.841V62.3952H132.117ZM131.859 57.9614C132.571 57.9614 133.183 58.0797 133.694 58.3167C134.205 58.5533 134.598 58.8922 134.872 59.3328C135.146 59.774 135.284 60.3006 135.284 60.913C135.284 61.2726 135.229 61.6318 135.118 61.9909C135.008 62.3501 134.832 62.677 134.59 62.9708C134.349 63.2646 134.026 63.5016 133.621 63.6813C133.216 63.8607 132.719 63.9506 132.13 63.9506H130.841V66.9268H129.233V57.9614H131.859Z" fill="white"/>
<path d="M139.015 63.6443C139.015 63.9627 139.103 64.261 139.279 64.5385C139.455 64.8163 139.69 65.0386 139.985 65.2059C140.279 65.3733 140.602 65.4569 140.954 65.4569C141.33 65.4569 141.668 65.3733 141.967 65.2059C142.265 65.0386 142.501 64.8163 142.673 64.5385C142.844 64.261 142.931 63.9627 142.931 63.6443V57.9614H144.526V63.6809C144.526 64.3424 144.366 64.9242 144.047 65.4262C143.728 65.9282 143.298 66.3204 142.758 66.6021C142.219 66.8839 141.617 67.0244 140.954 67.0244C140.291 67.0244 139.692 66.8839 139.156 66.6021C138.62 66.3204 138.193 65.9282 137.874 65.4262C137.555 64.9242 137.395 64.3424 137.395 63.6809V57.9614H139.015V63.6443Z" fill="white"/>
<path d="M153.461 66.2043C153.346 66.286 153.158 66.3942 152.896 66.5292C152.634 66.6638 152.317 66.7821 151.945 66.8841C151.573 66.9861 151.161 67.0331 150.712 67.025C150.008 67.0086 149.378 66.8821 148.821 66.6452C148.265 66.4086 147.792 66.0821 147.404 65.6654C147.015 65.249 146.719 64.7711 146.514 64.2322C146.309 63.6932 146.207 63.1219 146.207 62.5176C146.207 61.8319 146.311 61.2054 146.52 60.6377C146.729 60.0703 147.03 59.5804 147.422 59.1683C147.815 58.7558 148.279 58.4352 148.816 58.2064C149.351 57.9779 149.946 57.8639 150.601 57.8639C151.182 57.8639 151.701 57.941 152.16 58.0963C152.618 58.2515 152.994 58.4228 153.289 58.6107L152.651 60.1295C152.438 59.9746 152.16 59.817 151.816 59.6579C151.473 59.4987 151.084 59.4189 150.65 59.4189C150.159 59.4189 149.703 59.552 149.282 59.817C148.86 60.0824 148.523 60.4419 148.269 60.8949C148.015 61.3482 147.889 61.8607 147.889 62.432C147.889 63.0281 148.005 63.555 148.239 64.0122C148.472 64.4695 148.803 64.8264 149.233 65.0836C149.662 65.3408 150.167 65.4696 150.748 65.4696C151.223 65.4696 151.632 65.3941 151.976 65.2431C152.319 65.0918 152.59 64.9306 152.786 64.7594L153.461 66.2043Z" fill="white"/>
<path d="M154.676 57.9614H160.702V59.5168H158.456V66.9268H156.836V59.5168H154.676V57.9614Z" fill="white"/>
<path d="M162.482 57.9614H164.09V66.9268H162.482V57.9614Z" fill="white"/>
<path d="M167.612 62.4564C167.612 63.0121 167.743 63.518 168.005 63.9752C168.266 64.4328 168.62 64.7959 169.066 65.0652C169.512 65.3349 170.013 65.4695 170.57 65.4695C171.11 65.4695 171.599 65.3349 172.037 65.0652C172.474 64.7959 172.82 64.4328 173.074 63.9752C173.327 63.518 173.454 63.0121 173.454 62.4564C173.454 61.8851 173.323 61.3704 173.061 60.9131C172.799 60.4562 172.45 60.0925 172.012 59.8232C171.574 59.5535 171.081 59.4189 170.533 59.4189C169.977 59.4189 169.48 59.5535 169.042 59.8232C168.604 60.0925 168.256 60.4562 167.999 60.9131C167.741 61.3704 167.612 61.8851 167.612 62.4564ZM165.943 62.444C165.943 61.8319 166.059 61.2481 166.293 60.6925C166.526 60.1376 166.853 59.6477 167.274 59.2231C167.696 58.7985 168.183 58.4658 168.735 58.225C169.287 57.9841 169.878 57.8638 170.508 57.8638C171.138 57.8638 171.732 57.9841 172.288 58.225C172.845 58.4658 173.336 58.7985 173.761 59.2231C174.186 59.6477 174.52 60.1376 174.761 60.6925C175.002 61.2481 175.123 61.8358 175.123 62.4564C175.123 63.0856 175.002 63.6749 174.761 64.2262C174.52 64.7776 174.186 65.2636 173.761 65.6836C173.336 66.1045 172.845 66.433 172.288 66.6696C171.732 66.9069 171.138 67.0249 170.508 67.0249C169.886 67.0249 169.298 66.9069 168.741 66.6696C168.184 66.433 167.696 66.1065 167.274 65.6901C166.853 65.2734 166.526 64.7897 166.293 64.2387C166.059 63.6873 165.943 63.0895 165.943 62.444Z" fill="white"/>
<path d="M184.93 67.2695L178.081 60.876L178.56 61.1212L178.597 66.9267H176.965V57.6306H177.026L183.752 63.9996L183.396 63.8649L183.359 57.9614H184.979V67.2695H184.93Z" fill="white"/>
<path d="M193.33 66.1258C193.262 66.1736 193.152 66.2366 193 66.3154C192.846 66.3948 192.661 66.4635 192.443 66.5233C192.226 66.5831 191.985 66.6105 191.722 66.606C191.311 66.5962 190.943 66.522 190.617 66.3837C190.292 66.2451 190.016 66.0543 189.789 65.8111C189.562 65.5676 189.388 65.2885 189.269 64.9731C189.149 64.658 189.089 64.3243 189.089 63.971C189.089 63.5697 189.15 63.2036 189.272 62.8719C189.394 62.5398 189.57 62.2532 189.8 62.0127C190.029 61.7715 190.301 61.5845 190.614 61.4505C190.927 61.3168 191.275 61.2498 191.658 61.2498C191.998 61.2498 192.301 61.2953 192.569 61.3864C192.837 61.477 193.057 61.5773 193.229 61.6868L192.856 62.5748C192.732 62.4843 192.569 62.3918 192.368 62.2993C192.167 62.2061 191.94 62.1594 191.687 62.1594C191.4 62.1594 191.133 62.2369 190.887 62.3918C190.64 62.547 190.443 62.7569 190.295 63.0219C190.146 63.287 190.072 63.5867 190.072 63.9204C190.072 64.2694 190.14 64.577 190.277 64.8443C190.413 65.112 190.607 65.3205 190.858 65.4705C191.109 65.6209 191.404 65.6964 191.744 65.6964C192.021 65.6964 192.261 65.6523 192.461 65.5637C192.662 65.4754 192.82 65.3816 192.935 65.2813L193.33 66.1258Z" fill="white"/>
<path d="M194.652 64.7192C194.652 64.946 194.706 65.1533 194.813 65.3402C194.92 65.5278 195.064 65.6762 195.247 65.787C195.429 65.8971 195.634 65.952 195.862 65.952C196.083 65.952 196.283 65.8971 196.462 65.787C196.641 65.6762 196.783 65.5278 196.887 65.3402C196.99 65.1533 197.042 64.946 197.042 64.7192C197.042 64.4852 196.989 64.2747 196.882 64.0878C196.774 63.9008 196.631 63.7518 196.452 63.6417C196.273 63.5315 196.071 63.476 195.847 63.476C195.62 63.476 195.416 63.5315 195.237 63.6417C195.058 63.7518 194.915 63.9008 194.81 64.0878C194.705 64.2747 194.652 64.4852 194.652 64.7192ZM193.969 64.714C193.969 64.4633 194.016 64.2247 194.112 63.9973C194.207 63.7704 194.341 63.5698 194.514 63.3959C194.686 63.222 194.885 63.0864 195.111 62.9873C195.337 62.889 195.579 62.8396 195.837 62.8396C196.095 62.8396 196.338 62.889 196.565 62.9873C196.793 63.0864 196.994 63.222 197.168 63.3959C197.342 63.5698 197.479 63.7704 197.577 63.9973C197.676 64.2247 197.726 64.4653 197.726 64.7192C197.726 64.9764 197.676 65.2176 197.577 65.4432C197.479 65.6687 197.342 65.8674 197.168 66.04C196.994 66.2119 196.793 66.3462 196.565 66.4433C196.338 66.5403 196.095 66.5884 195.837 66.5884C195.583 66.5884 195.342 66.5403 195.114 66.4433C194.886 66.3462 194.686 66.2125 194.514 66.0419C194.341 65.872 194.207 65.6742 194.112 65.4484C194.016 65.2229 193.969 64.9784 193.969 64.714Z" fill="white"/>
<path d="M202.988 61.3355H203.921L205.284 64.7366L205.112 64.7078L206.181 61.3355H207.192L205.155 66.7773L202.988 61.3355ZM200.376 61.3355H201.481L202.687 64.8225L202.536 64.7581L203.533 62.2595L203.964 63.5482L202.486 66.791L200.376 61.3355Z" fill="white"/>
<path d="M207.02 65.7282C207.121 65.635 207.231 65.5886 207.35 65.5886C207.46 65.5886 207.566 65.635 207.666 65.7282C207.766 65.8213 207.817 65.9347 207.817 66.0684C207.817 66.2161 207.766 66.3334 207.666 66.4194C207.566 66.5054 207.46 66.5479 207.35 66.5479C207.231 66.5479 207.121 66.5054 207.02 66.4194C206.92 66.3334 206.87 66.2187 206.87 66.0756C206.87 65.9373 206.92 65.8213 207.02 65.7282Z" fill="white"/>
<path d="M198.066 65.7282C198.167 65.635 198.277 65.5886 198.396 65.5886C198.506 65.5886 198.612 65.635 198.712 65.7282C198.812 65.8213 198.863 65.9347 198.863 66.0684C198.863 66.2161 198.812 66.3334 198.712 66.4194C198.612 66.5054 198.506 66.5479 198.396 66.5479C198.277 66.5479 198.167 66.5054 198.066 66.4194C197.966 66.3334 197.916 66.2187 197.916 66.0756C197.916 65.9373 197.966 65.8213 198.066 65.7282Z" fill="white"/>
<path d="M208.656 61.3068H209.596V65.6389H212.121V66.5479H208.656V61.3068Z" fill="white"/>
<path d="M212.81 65.7282C212.911 65.635 213.021 65.5886 213.141 65.5886C213.25 65.5886 213.356 65.635 213.456 65.7282C213.557 65.8213 213.607 65.9347 213.607 66.0684C213.607 66.2161 213.557 66.3334 213.456 66.4194C213.356 66.5054 213.25 66.5479 213.141 66.5479C213.021 66.5479 212.911 66.5054 212.81 66.4194C212.71 66.3334 212.66 66.2187 212.66 66.0756C212.66 65.9373 212.71 65.8213 212.81 65.7282Z" fill="white"/>
<path d="M214.446 61.3068H215.386V65.6389H217.911V66.5479H214.446V61.3068Z" fill="white"/>
</g>
<defs>
<clipPath id="clip0_583_3132">
<rect width="307" height="74" fill="white"/>
</clipPath>
</defs>
</svg>
